<?xml version="1.0" encoding="UTF-8"?>
<svg version="1.1" xmlns="http://www.w3.org/2000/svg" width="1267" height="1267">
<path d="M0 0 C29.30739449 -0.24260165 59.30299212 9.47771511 84.49560547 24.03344727 C85.52169922 24.54133789 86.54779297 25.04922852 87.60498047 25.57250977 C90.24802951 26.90832104 92.62055626 28.35899486 95.05810547 30.03344727 C97.31719488 31.57977585 99.56396445 33.07384621 101.92138672 34.46704102 C104.77413845 36.20293395 107.43261884 38.11513067 110.12060547 40.09594727 C112.88587786 42.13012709 115.63894536 44.12900719 118.49560547 46.03344727 C118.49560547 46.69344727 118.49560547 47.35344727 118.49560547 48.03344727 C119.05248047 48.28094727 119.60935547 48.52844727 120.18310547 48.78344727 C122.9197146 50.26269545 125.17211416 51.96812166 127.49560547 54.03344727 C127.49560547 54.69344727 127.49560547 55.35344727 127.49560547 56.03344727 C128.05634766 56.26805664 128.61708984 56.50266602 129.19482422 56.74438477 C140.13687035 62.87490297 148.81589711 76.32692928 156.49560547 86.03344727 C157.60355469 87.32702148 157.60355469 87.32702148 158.73388672 88.64672852 C160.49560547 91.03344727 160.49560547 91.03344727 160.49560547 94.03344727 C161.15560547 94.03344727 161.81560547 94.03344727 162.49560547 94.03344727 C163.71313477 95.55541992 163.71313477 95.55541992 165.06982422 97.69750977 C165.56909424 98.48295166 166.06836426 99.26839355 166.58276367 100.07763672 C167.11087646 100.9293042 167.63898926 101.78097168 168.18310547 102.65844727 C168.72475342 103.52493896 169.26640137 104.39143066 169.82446289 105.28417969 C174.18440462 112.34682875 177.92894721 119.53816791 181.49560547 127.03344727 C182.68233395 129.32551356 183.86984652 131.61717403 185.05810547 133.90844727 C196.62006522 157.13513975 204.63452352 183.56948594 208.83935547 209.11157227 C209.36829111 212.27259239 209.97403024 215.39565573 210.62060547 218.53344727 C217.13344235 255.33097567 213.62335077 298.19593809 200.49560547 333.03344727 C200.26760254 333.64591309 200.03959961 334.25837891 199.8046875 334.8894043 C191.03960019 358.27299688 178.17116302 381.14167495 160.49560547 399.03344727 C160.16560547 399.03344727 159.83560547 399.03344727 159.49560547 399.03344727 C159.73398507 392.93092959 160.27049107 386.97130084 161.42407227 380.97558594 C164.42411262 365.35449624 165.17529531 350.22840386 165.05810547 334.34594727 C165.05417786 333.11975677 165.05025024 331.89356628 165.04620361 330.63021851 C164.963422 312.28632125 164.15274416 294.85561033 159.49560547 277.03344727 C159.2497168 276.05037598 159.00382812 275.06730469 158.75048828 274.05444336 C154.54121202 257.45118699 148.39598322 242.19454751 140.49560547 227.03344727 C140.04056641 226.14270508 139.58552734 225.25196289 139.11669922 224.33422852 C136.5216156 219.42669414 133.4234403 215.22903753 129.85107422 210.97875977 C128.49560547 209.03344727 128.49560547 209.03344727 128.49560547 206.03344727 C127.90263672 205.77821289 127.30966797 205.52297852 126.69873047 205.26000977 C124.26886057 203.90720986 123.00324281 202.55003451 121.24560547 200.40844727 C113.55535359 191.40680507 105.23127777 184.67179983 95.49560547 178.03344727 C94.54427734 177.36700195 93.59294922 176.70055664 92.61279297 176.01391602 C77.58571422 166.46663666 59.44057748 159.40730085 41.49560547 159.03344727 C39.97966797 158.97543945 39.97966797 158.97543945 38.43310547 158.91625977 C15.82142612 158.42706478 -1.78708315 164.94770531 -18.50439453 180.03344727 C-31.37040563 192.69631082 -38.99052385 209.07050956 -44.50439453 226.03344727 C-44.7524585 226.77481934 -45.00052246 227.51619141 -45.25610352 228.2800293 C-47.30836887 234.6830972 -48.40768465 240.98889825 -49.19189453 247.65844727 C-49.31709473 248.71676758 -49.44229492 249.77508789 -49.57128906 250.86547852 C-52.26120048 274.90267329 -49.11815633 298.12626379 -41.50439453 321.03344727 C-41.12541016 322.1974707 -40.74642578 323.36149414 -40.35595703 324.56079102 C-36.07764138 336.59165738 -29.78836842 348.54690817 -22.50439453 359.03344727 C-21.91658203 359.89067383 -21.32876953 360.74790039 -20.72314453 361.63110352 C-18.24948652 365.17855398 -15.79527699 368.67543808 -13.06689453 372.03344727 C-11.50439453 374.03344727 -11.50439453 374.03344727 -11.50439453 376.03344727 C-10.84439453 376.03344727 -10.18439453 376.03344727 -9.50439453 376.03344727 C-8.05037111 377.67107446 -6.66590775 379.37078922 -5.31689453 381.09594727 C0.69551608 388.58273882 6.90067194 394.52849769 14.55419922 400.33422852 C15.51519531 401.1753418 15.51519531 401.1753418 16.49560547 402.03344727 C16.49560547 402.69344727 16.49560547 403.35344727 16.49560547 404.03344727 C17.05248047 404.30157227 17.60935547 404.56969727 18.18310547 404.84594727 C20.70785881 406.14244222 23.13275031 407.45821049 25.49560547 409.03344727 C25.49560547 409.69344727 25.49560547 410.35344727 25.49560547 411.03344727 C26.19814453 411.27836914 26.90068359 411.52329102 27.62451172 411.77563477 C30.91374678 413.21663298 33.52429315 415.05295134 36.43310547 417.15844727 C46.25912765 424.11166632 56.81313874 429.71800083 67.43310547 435.34594727 C68.22604004 435.76674561 69.01897461 436.18754395 69.8359375 436.62109375 C74.32090539 438.9743995 78.81260892 441.1041846 83.49560547 443.03344727 C84.50236328 443.45883789 85.50912109 443.88422852 86.54638672 444.32250977 C94.8347955 447.71728318 103.22754482 450.76760125 111.68310547 453.72094727 C112.76309814 454.10138184 113.84309082 454.48181641 114.95581055 454.8737793 C121.15788378 457.01776412 127.34310927 458.84434078 133.73510742 460.33349609 C136.49560547 461.03344727 136.49560547 461.03344727 139.44335938 462.02856445 C142.58104944 463.06157776 145.67283114 463.79226977 148.90576172 464.46704102 C150.74678467 464.85158447 150.74678467 464.85158447 152.625 465.24389648 C159.05581099 466.55569431 165.49097408 467.84090323 171.93310547 469.09594727 C173.2228125 469.35182617 174.51251953 469.60770508 175.84130859 469.87133789 C184.70033358 471.59700675 193.54038048 472.93873318 202.49560547 474.03344727 C202.16560547 475.35344727 201.83560547 476.67344727 201.49560547 478.03344727 C148.37937632 491.00882549 88.58005795 496.98923564 34.64111328 484.71582031 C31.70309212 484.07845853 28.78292558 483.58595636 25.80810547 483.15844727 C7.48749713 480.20272245 -10.3370363 473.89606083 -27.50439453 467.03344727 C-28.92945313 466.4669043 -28.92945313 466.4669043 -30.38330078 465.88891602 C-42.4035721 460.99903694 -54.28163861 455.56096857 -65.50439453 449.03344727 C-66.59236328 448.42758789 -67.68033203 447.82172852 -68.80126953 447.19750977 C-75.17037561 443.64193664 -81.30928055 439.963706 -87.22314453 435.67407227 C-88.91878179 434.45460712 -90.64713945 433.28037991 -92.39111328 432.13110352 C-95.63263183 429.94704397 -98.73477089 427.62079003 -101.81689453 425.22094727 C-102.95228717 424.3394059 -104.08770398 423.45789566 -105.22314453 422.57641602 C-106.05265625 421.9313208 -106.05265625 421.9313208 -106.89892578 421.27319336 C-108.37249976 420.13529667 -109.85970156 419.01510531 -111.34814453 417.89672852 C-112.57017578 416.9744043 -112.57017578 416.9744043 -113.81689453 416.03344727 C-114.53490234 415.49719727 -115.25291016 414.96094727 -115.99267578 414.40844727 C-116.74097656 413.72782227 -116.74097656 413.72782227 -117.50439453 413.03344727 C-117.50439453 412.37344727 -117.50439453 411.71344727 -117.50439453 411.03344727 C-118.04064453 410.80657227 -118.57689453 410.57969727 -119.12939453 410.34594727 C-126.30638376 406.37971637 -131.80334066 399.91777262 -137.02783203 393.72875977 C-138.33201763 392.23136149 -139.72527529 390.8125665 -141.12939453 389.40844727 C-143.46508509 387.07275671 -145.44294227 384.61026259 -147.50439453 382.03344727 C-148.61814453 380.95063477 -148.61814453 380.95063477 -149.75439453 379.84594727 C-165.50439453 363.73799272 -165.50439453 363.73799272 -165.50439453 358.03344727 C-166.16439453 358.03344727 -166.82439453 358.03344727 -167.50439453 358.03344727 C-168.87158203 356.31079102 -168.87158203 356.31079102 -170.37939453 353.97094727 C-170.87181641 353.2168457 -171.36423828 352.46274414 -171.87158203 351.68579102 C-173.45069463 349.12067748 -174.94879778 346.51781376 -176.43310547 343.89697266 C-177.51625603 342.01281399 -178.63477473 340.15464981 -179.76611328 338.29907227 C-188.56276603 323.79941293 -195.85011409 308.92167872 -201.23486328 292.82641602 C-202.30272962 289.63595996 -203.43980505 286.49215883 -204.62939453 283.34594727 C-218.93685507 243.66187976 -223.52583056 193.61656949 -212.43408203 152.50219727 C-211.67444317 149.66791447 -211.10141537 146.9233708 -210.62939453 144.03344727 C-208.58100499 133.37084816 -204.13295584 122.8116662 -199.50439453 113.03344727 C-198.92226387 111.72417367 -198.341697 110.41420428 -197.76220703 109.10375977 C-194.23109093 101.22874766 -190.61563103 94.1447181 -185.26611328 87.33032227 C-183.46716548 85.07611415 -183.46716548 85.07611415 -182.06298828 82.62329102 C-180.20381026 79.53398017 -178.08168845 76.69384399 -175.87939453 73.84594727 C-175.44498047 73.28367432 -175.01056641 72.72140137 -174.56298828 72.14208984 C-170.47808121 66.91089273 -166.30991461 61.62147613 -161.50439453 57.03344727 C-160.84439453 57.03344727 -160.18439453 57.03344727 -159.50439453 57.03344727 C-159.27623047 56.45981445 -159.04806641 55.88618164 -158.81298828 55.29516602 C-157.15039857 52.42161543 -155.1733805 50.89897567 -152.56689453 48.84594727 C-147.96049192 45.19781574 -147.96049192 45.19781574 -143.43798828 41.44750977 C-142.46990234 40.63024414 -141.50181641 39.81297852 -140.50439453 38.97094727 C-139.61751953 38.2168457 -138.73064453 37.46274414 -137.81689453 36.68579102 C-135.50439453 35.03344727 -135.50439453 35.03344727 -132.50439453 35.03344727 C-133.12114746 37.9678928 -134.0465848 40.2066511 -135.56689453 42.78344727 C-146.02879096 61.24208062 -154.49097933 80.39339592 -159.50439453 101.03344727 C-159.69517578 101.7957666 -159.88595703 102.55808594 -160.08251953 103.34350586 C-162.54837462 113.26732302 -164.17476283 122.78190147 -164.50439453 133.03344727 C-164.06869141 131.81270508 -163.63298828 130.59196289 -163.18408203 129.33422852 C-159.70438602 119.67671858 -156.03290336 110.25777437 -151.50439453 101.03344727 C-150.8923043 99.75876101 -150.28033093 98.48401863 -149.66845703 97.20922852 C-142.8776755 83.20409215 -135.14784623 70.28369774 -125.50439453 58.03344727 C-124.75416016 57.05504883 -124.00392578 56.07665039 -123.23095703 55.06860352 C-119.1538214 49.82131523 -119.1538214 49.82131523 -117.50439453 48.03344727 C-116.84439453 48.03344727 -116.18439453 48.03344727 -115.50439453 48.03344727 C-115.27751953 47.47657227 -115.05064453 46.91969727 -114.81689453 46.34594727 C-103.26319497 25.98942899 -70.04751334 12.36532911 -48.50439453 6.03344727 C-32.39462182 2.1048094 -16.53553387 0.22083916 0 0 Z " fill="#64A556" transform="translate(531.50439453125,288.966552734375)"/>
<path d="M0 0 C4.21274829 0.60107728 8.34865366 0.95558872 12.59765625 1.15625 C17.61024006 1.48602525 21.6377981 2.73987871 26.27734375 4.61328125 C29.86527643 5.931963 33.50998993 6.83681728 37.22265625 7.71875 C48.09286557 10.34180098 58.18105358 13.91993432 68.28515625 18.71875 C69.65692181 19.34902982 71.02936721 19.97783127 72.40234375 20.60546875 C80.3210381 24.24499719 87.91767216 28.04210141 95.28515625 32.71875 C96.30996094 33.33492187 97.33476563 33.95109375 98.390625 34.5859375 C105.64056249 38.95459854 112.53544667 43.61463077 119.28515625 48.71875 C119.83268555 49.12947754 120.38021484 49.54020508 120.94433594 49.96337891 C126.69663293 54.28325382 132.23762139 58.56696313 137.28515625 63.71875 C138.08953125 64.3375 138.89390625 64.95625 139.72265625 65.59375 C142.44461689 67.85098565 144.55539309 70.27866302 146.80859375 72.98828125 C148.10304024 74.50531774 149.50001593 75.93360968 150.91015625 77.34375 C153.28515625 79.71875 153.28515625 79.71875 155.41015625 82.40625 C157.25076698 84.91028669 157.25076698 84.91028669 160.28515625 86.71875 C160.28515625 87.70875 160.28515625 88.69875 160.28515625 89.71875 C160.85878906 89.94046875 161.43242188 90.1621875 162.0234375 90.390625 C170.72012219 95.49748648 177.01384775 109.27461581 182.28515625 117.71875 C182.80722656 118.52441406 183.32929687 119.33007812 183.8671875 120.16015625 C192.19146905 133.34600168 198.17232676 148.03536633 203.28515625 162.71875 C203.72601562 163.96140625 204.166875 165.2040625 204.62109375 166.484375 C207.49284958 174.80376462 209.78872537 183.1599086 211.80126953 191.71679688 C212.26521466 193.63624694 212.77231324 195.54511111 213.28125 197.453125 C215.74643399 206.85148923 217.19466661 216.34629194 218.47265625 225.96875 C218.63958984 227.22381348 218.80652344 228.47887695 218.97851562 229.77197266 C220.85279481 244.43261529 221.5224074 258.89324242 221.53515625 273.65625 C221.53649567 274.57749664 221.53783508 275.49874329 221.53921509 276.44790649 C221.53401037 293.06045548 220.40295714 309.23312348 218.28515625 325.71875 C218.02952338 327.87088936 217.77557379 330.02322944 217.5234375 332.17578125 C216.40725112 341.45868222 215.07382725 350.57889199 212.9609375 359.69140625 C212.31824944 362.57050015 211.84305703 365.42672698 211.41015625 368.34375 C205.55382656 404.58579028 192.68447699 441.97346644 177.66552734 475.33813477 C175.90463166 479.25163557 174.32781734 483.19133495 172.84765625 487.21875 C170.1751849 494.30167245 166.78498221 500.9513139 163.32910156 507.67480469 C161.9730246 510.32987399 160.65173126 513.00150351 159.33007812 515.67382812 C147.71445094 539.11291678 135.00001136 562.06879702 120.28515625 583.71875 C117.06108985 588.50284854 113.95812685 593.35727021 110.87109375 598.23046875 C109.69654485 600.07329547 108.49734758 601.900463 107.28515625 603.71875 C106.62515625 603.71875 105.96515625 603.71875 105.28515625 603.71875 C105.03507812 604.4303125 104.785 605.141875 104.52734375 605.875 C103.15494992 609.01683242 101.45588136 611.47053061 99.41015625 614.21875 C98.73210937 615.1365625 98.0540625 616.054375 97.35546875 617 C95.37060092 619.60654341 93.34214966 622.16889282 91.28515625 624.71875 C90.68316406 625.47414063 90.08117187 626.22953125 89.4609375 627.0078125 C85.17301742 632.38344397 80.83562021 637.71498581 76.46484375 643.0234375 C73.78950655 646.33165017 71.22775302 649.71822339 68.6953125 653.13671875 C68.22996094 653.65878906 67.76460937 654.18085937 67.28515625 654.71875 C66.62515625 654.71875 65.96515625 654.71875 65.28515625 654.71875 C64.87160889 655.6144873 64.87160889 655.6144873 64.44970703 656.52832031 C63.34293591 658.61007095 62.25512809 660.05458193 60.65234375 661.765625 C60.10545898 662.35142334 59.55857422 662.93722168 58.99511719 663.54077148 C58.38958008 664.17700439 57.78404297 664.8132373 57.16015625 665.46875 C56.51852539 666.14687744 55.87689453 666.82500488 55.21582031 667.52368164 C49.41572215 673.61029553 43.52574271 679.60984128 37.6026001 685.57653809 C36.57287033 686.61432734 35.54462376 687.65359078 34.51800537 688.69445801 C27.79325584 695.50260974 20.81349518 701.79399763 13.28515625 707.71875 C10.46684732 709.95314885 7.79209785 712.14274665 5.28515625 714.71875 C4.06660936 715.83462553 2.8365996 716.9380647 1.59765625 718.03125 C0.97503906 718.58425781 0.35242188 719.13726563 -0.2890625 719.70703125 C-13.2833101 730.48325913 -27.55097336 739.88882249 -41.95800781 748.64648438 C-43.59022649 749.64269122 -45.21161806 750.65657851 -46.83203125 751.671875 C-47.72148438 752.22359375 -48.6109375 752.7753125 -49.52734375 753.34375 C-50.27628906 753.81039062 -51.02523437 754.27703125 -51.796875 754.7578125 C-53.71484375 755.71875 -53.71484375 755.71875 -56.71484375 755.71875 C-56.71484375 754.72875 -56.71484375 753.73875 -56.71484375 752.71875 C-55.16796875 751.28125 -55.16796875 751.28125 -52.96484375 749.71875 C-48.34490594 746.29034679 -44.15759762 742.55384288 -39.96582031 738.62695312 C-37.72125545 736.53162394 -35.46764645 734.52317331 -33.05859375 732.6171875 C-30.90604883 730.87362612 -29.22817857 729.15526694 -27.46484375 727.03125 C-24.88212053 724.00130198 -22.19447484 721.18130949 -19.33984375 718.40625 C-15.27312872 714.38762112 -11.66858268 710.12851622 -8.09765625 705.66796875 C-5.98056667 703.04763656 -3.81814667 700.48119477 -1.62451172 697.92553711 C10.63526385 683.62529664 21.13420102 668.07123734 31.515625 652.3828125 C32.6313873 650.70301142 33.75761986 649.03007423 34.8984375 647.3671875 C38.18428432 642.5615304 41.06039939 637.63312308 43.79296875 632.4921875 C46.12675563 628.15452079 48.59933619 623.89871988 51.07421875 619.640625 C59.53284585 605.02699691 67.35430775 590.117654 74.28515625 574.71875 C74.61257813 573.99800293 74.94 573.27725586 75.27734375 572.53466797 C79.18834432 563.92054218 82.9573937 555.31708339 86.1796875 546.41796875 C87.28515625 543.71875 87.28515625 543.71875 88.734375 541.42578125 C90.86799236 537.70135598 91.99145051 533.79664709 93.28515625 529.71875 C94.41232724 526.3997468 95.56825719 523.09086859 96.72265625 519.78125 C97.00947266 518.95173828 97.29628906 518.12222656 97.59179688 517.26757812 C99.06449714 513.04627468 100.61078405 508.8830569 102.31640625 504.75 C104.38254122 499.64774876 105.90119429 494.46254307 107.34765625 489.15625 C108.74948216 484.0732367 110.1541717 479.01304281 111.8515625 474.01953125 C113.85594558 468.11690589 115.2663346 462.07469657 116.72607422 456.02001953 C117.2981372 453.66531839 117.88649981 451.31509346 118.4765625 448.96484375 C122.0305552 434.6589696 124.9374621 420.27096597 127.28515625 405.71875 C127.40006409 405.01937317 127.51497192 404.31999634 127.63336182 403.59942627 C137.0177099 346.12169672 137.4756249 282.7850309 111.97265625 229.15625 C111.58384277 228.33560059 111.1950293 227.51495117 110.79443359 226.66943359 C108.21560164 221.34604041 105.39353982 216.44035361 101.79296875 211.7265625 C100.28515625 209.71875 100.28515625 209.71875 98.90625 207.3515625 C86.81685442 187.71721883 66.49518329 173.5789982 45.78515625 164.40625 C44.77195312 163.95185547 43.75875 163.49746094 42.71484375 163.02929688 C40.24056525 161.92054 37.76403646 160.81717022 35.28515625 159.71875 C35.28515625 158.72875 35.28515625 157.73875 35.28515625 156.71875 C36.14173828 156.33396484 36.14173828 156.33396484 37.015625 155.94140625 C47.95207201 150.77745591 57.89408849 144.4049388 65.28515625 134.71875 C65.81625 134.11804688 66.34734375 133.51734375 66.89453125 132.8984375 C75.78868571 122.37515573 75.84761669 109.76470747 75.28515625 96.71875 C74.62515625 96.71875 73.96515625 96.71875 73.28515625 96.71875 C73.19234375 98.018125 73.19234375 98.018125 73.09765625 99.34375 C71.75047002 104.93975434 68.38087872 108.16658035 63.78515625 111.34375 C52.45982042 117.9930949 39.76438383 118.90125014 26.97265625 118.84375 C25.91739746 118.84181641 24.86213867 118.83988281 23.77490234 118.83789062 C17.30557795 118.80274717 10.86742635 118.60541288 4.41015625 118.21875 C-28.4669591 115.96855759 -28.4669591 115.96855759 -57.84765625 128.41796875 C-65.02348695 135.09839691 -70.44714394 145.38148033 -71.21484375 155.21875 C-71.37984375 156.37375 -71.54484375 157.52875 -71.71484375 158.71875 C-73.65234375 159.96875 -73.65234375 159.96875 -75.71484375 160.71875 C-76.02421875 161.34523437 -76.33359375 161.97171875 -76.65234375 162.6171875 C-77.71484375 164.71875 -77.71484375 164.71875 -80.77734375 167.09375 C-91.63888327 176.07322735 -98.57146908 192.02143216 -100.4375 205.65234375 C-102.21342107 225.28752739 -97.62580131 243.31670623 -85.00390625 258.8203125 C-84.45476562 259.44679688 -83.905625 260.07328125 -83.33984375 260.71875 C-80.71484375 263.71875 -80.71484375 263.71875 -80.71484375 265.71875 C-80.17601562 265.93789063 -79.6371875 266.15703125 -79.08203125 266.3828125 C-75.91193287 268.17187792 -73.45148615 270.59394115 -70.83984375 273.09375 C-67.80830893 275.99347895 -64.8853348 278.69398277 -61.33203125 280.9453125 C-60.46835937 281.53054688 -59.6046875 282.11578125 -58.71484375 282.71875 C-58.71484375 283.37875 -58.71484375 284.03875 -58.71484375 284.71875 C-86.42331145 296.91047579 -119.23360972 295.59133145 -147.43115234 285.35742188 C-160.90937441 280.08910362 -173.40358163 272.71122312 -185.02734375 264.15625 C-186.59935547 263.00962891 -186.59935547 263.00962891 -188.203125 261.83984375 C-190.71484375 259.71875 -190.71484375 259.71875 -191.71484375 256.71875 C-193.04684982 256.38015182 -194.38037234 256.04749752 -195.71484375 255.71875 C-197.35546875 254.22265625 -197.35546875 254.22265625 -198.96484375 252.28125 C-199.56425781 251.56453125 -200.16367187 250.8478125 -200.78125 250.109375 C-201.41933594 249.32046875 -202.05742188 248.5315625 -202.71484375 247.71875 C-203.40449219 246.86796875 -204.09414063 246.0171875 -204.8046875 245.140625 C-206.78630443 242.67559686 -208.75243168 240.19907701 -210.71484375 237.71875 C-211.40191406 236.88085938 -212.08898437 236.04296875 -212.796875 235.1796875 C-219.7465515 226.2625873 -223.2952028 215.56987813 -226.40234375 204.84375 C-226.72428711 203.76589233 -226.72428711 203.76589233 -227.05273438 202.66625977 C-230.00344819 192.09718938 -229.87717802 181.17663458 -229.83984375 170.28125 C-229.84371094 169.15654297 -229.84757813 168.03183594 -229.8515625 166.87304688 C-229.83847829 155.48324223 -229.27866574 144.42608781 -226.52734375 133.34375 C-226.30667236 132.44237305 -226.08600098 131.54099609 -225.85864258 130.61230469 C-223.8320032 122.64742068 -221.09049665 115.21672599 -217.71484375 107.71875 C-217.4223877 107.04392578 -217.12993164 106.36910156 -216.82861328 105.67382812 C-209.42980543 88.6123104 -198.76836979 70.22091277 -184.71484375 57.71875 C-184.05484375 57.71875 -183.39484375 57.71875 -182.71484375 57.71875 C-182.44671875 57.079375 -182.17859375 56.44 -181.90234375 55.78125 C-180.71484375 53.71875 -180.71484375 53.71875 -177.71484375 52.71875 C-177.4209375 52.12320313 -177.12703125 51.52765625 -176.82421875 50.9140625 C-174.36288757 46.0434001 -168.98652108 42.98196049 -164.71484375 39.71875 C-164.17746582 39.30786133 -163.64008789 38.89697266 -163.08642578 38.47363281 C-150.88502067 29.24580081 -137.80190035 21.69634375 -123.71484375 15.71875 C-122.76351562 15.28820312 -121.8121875 14.85765625 -120.83203125 14.4140625 C-114.69374522 11.70552375 -108.80213103 9.94018072 -102.23828125 8.59375 C-99.10715056 7.81617431 -96.25833419 6.77087361 -93.26977539 5.57446289 C-65.07753617 -5.30786873 -29.30937819 -4.19616851 0 0 Z " fill="#039DA6" transform="translate(888.71484375,57.28125)"/>
<path d="M0 0 C1.6396875 1.0209375 1.6396875 1.0209375 3.3125 2.0625 C6.20514247 4.14789341 8.54404456 6.41809813 11 9 C11.86625 9.86625 12.7325 10.7325 13.625 11.625 C14.40875 12.40875 15.1925 13.1925 16 14 C16.49113281 14.43957031 16.98226563 14.87914062 17.48828125 15.33203125 C25.5473074 24.22403168 26.44029869 37.79257065 26.24609375 49.125 C25.11072274 67.0025879 17.01017266 80.63433464 4.37109375 92.953125 C-2.40600556 98.80353692 -10.11515065 103.78252244 -18 108 C-14.73775726 110.68655284 -11.34233759 112.2692173 -7.5 114 C4.4869138 119.7455983 15.18892475 129.67104894 20.2734375 142.1171875 C27.27095029 162.41493738 24.81023365 184.30072543 15.75 203.625 C11.08677603 212.18781957 4.89740637 219.18135683 -2 226 C-2.886875 226.928125 -3.77375 227.85625 -4.6875 228.8125 C-7 231 -7 231 -9 231 C-9 231.66 -9 232.32 -9 233 C-44.46575594 258.39805748 -87.82718565 261.93923556 -130 262 C-130.69577148 262.00235657 -131.39154297 262.00471313 -132.10839844 262.00714111 C-154.4111053 262.06305957 -184.65065611 261.8778464 -203 247 C-205 244 -205 244 -205 241 C-204.34 241 -203.68 241 -203 241 C-202.67 240.01 -202.34 239.02 -202 238 C-201.2575 237.319375 -200.515 236.63875 -199.75 235.9375 C-195.99355074 232.35526288 -194.08408865 227.68005873 -192 223 C-191.66226563 222.26265625 -191.32453125 221.5253125 -190.9765625 220.765625 C-189.58897183 216.83596822 -188.84704767 212.83712719 -188.0625 208.75 C-187.88992676 207.87118164 -187.71735352 206.99236328 -187.53955078 206.08691406 C-186.28688021 199.65089893 -185.11597498 193.20123882 -184.03930664 186.73339844 C-183.47678115 183.41596189 -182.81232792 180.15853711 -181.97265625 176.90234375 C-181.1105588 173.55561639 -180.52811727 170.24032998 -180.0625 166.8125 C-179.41345956 162.39598261 -178.60543692 158.09013853 -177.5625 153.75 C-176.41777081 148.96036194 -175.455575 144.16514169 -174.625 139.3125 C-173.23120184 131.18833075 -171.69450891 123.09616945 -170.11767578 115.00561523 C-168.95824476 109.03935868 -167.82380616 103.07047768 -166.737854 97.0904541 C-166.14449584 93.82562911 -165.54376177 90.56217445 -164.94299316 87.29870605 C-164.65289913 85.71154234 -164.36622728 84.12374841 -164.08337402 82.53527832 C-160.50139031 62.43999654 -155.86359409 41.60696392 -138.9140625 28.37109375 C-126.9211509 20.90338857 -110.75047582 20.43717172 -97.125 22.62109375 C-89.39057465 24.49635852 -82.70926454 27.32077084 -78 34 C-77.06789814 37.06737603 -76.81525169 39.80754912 -77 43 C-77.969375 43.268125 -78.93875 43.53625 -79.9375 43.8125 C-81.4534375 44.4003125 -81.4534375 44.4003125 -83 45 C-83.33 45.99 -83.66 46.98 -84 48 C-84.98387407 49.01586998 -85.98485113 50.01538192 -87 51 C-95.35385856 64.74344473 -96.84837282 83.46753619 -100 99 C-71.23278673 99.52039977 -71.23278673 99.52039977 -46 87 C-42.04739587 83.07821539 -38.60191182 78.94363245 -36 74 C-35.2265625 72.63875 -35.2265625 72.63875 -34.4375 71.25 C-29.97475321 61.16031161 -29.32916861 48.73749274 -32.19140625 38.078125 C-36.4568133 27.11582281 -45.89535302 19.13072762 -56.41015625 14.38671875 C-87.6503154 2.31897501 -126.53744899 4.69152878 -157 18 C-159.34217997 19.11813353 -161.59430529 20.3162035 -163.875 21.5625 C-164.94492188 22.14128906 -166.01484375 22.72007812 -167.1171875 23.31640625 C-169.96495352 24.9017678 -169.96495352 24.9017678 -172.2578125 26.71484375 C-174 28 -174 28 -176 28 C-176 28.66 -176 29.32 -176 30 C-181.47619048 35 -181.47619048 35 -184 35 C-184.26167969 35.56460938 -184.52335937 36.12921875 -184.79296875 36.7109375 C-186.10690623 39.20274126 -187.64521642 41.35512834 -189.3125 43.625 C-200.99813973 60.29100594 -203.41940031 79.36671305 -200.67480469 99.37011719 C-199.25051107 106.90050656 -196.445117 113.88925336 -193.05078125 120.73046875 C-192.08073389 122.8256268 -191.4713403 124.7468898 -191 127 C-198.35749997 134.35749997 -207.91961946 137.47093311 -218.1875 137.5 C-231.55793644 137.20871888 -241.1863068 132.23754657 -250.89453125 123.28125 C-262.10704682 111.13262459 -263.9450227 94.62555133 -263.44921875 78.84375 C-262.37852901 60.63302709 -255.11707548 45.24375296 -244 31 C-243.54625 30.40316406 -243.0925 29.80632813 -242.625 29.19140625 C-239.99453611 25.86006218 -237.01601829 23.16552073 -233.74609375 20.4921875 C-231.92804766 18.98618019 -231.92804766 18.98618019 -230.14453125 17.08203125 C-219.19834923 6.45486364 -203.29677114 -1.96061017 -189 -7 C-188.00484375 -7.38542969 -187.0096875 -7.77085937 -185.984375 -8.16796875 C-133.06308033 -28.16729523 -48.99297515 -32.06812919 0 0 Z M-106 128 C-108.56757144 138.34799861 -111.07339585 148.66943679 -112.83520508 159.18896484 C-114.14146177 166.97581174 -115.65411447 174.72111693 -117.1640625 182.47070312 C-118.08510962 187.20632793 -119.00537959 191.93876698 -119.8125 196.6953125 C-121.94440914 209.19322213 -125.12002749 221.19697934 -132 232 C-113.96474352 237.05240308 -89.57955535 231.86097819 -73.375 223.37890625 C-69.65012553 221.21627354 -66.33972919 218.70843891 -63 216 C-62.36578125 215.55785156 -61.7315625 215.11570312 -61.078125 214.66015625 C-49.28414144 205.76749264 -43.0485228 190.20982365 -41 176 C-39.88167851 164.75729989 -41.53179932 154.69427166 -47.875 145.1875 C-55.71850017 135.82974492 -69.32302572 132.2199135 -80.9375 130.4375 C-81.76419189 130.30819092 -82.59088379 130.17888184 -83.44262695 130.0456543 C-90.94724161 128.91898897 -98.42016652 128.32857275 -106 128 Z " fill="#05767E" transform="translate(343,950)"/>
<path d="M0 0 C0.60650391 0.32000977 1.21300781 0.64001953 1.83789062 0.96972656 C3.62516633 1.94183975 5.37531817 2.96193797 7.125 4 C7.7425415 4.33749268 8.36008301 4.67498535 8.99633789 5.02270508 C14.58565592 8.42396535 16.03046672 12.57047707 17.8125 18.6875 C18.10157227 19.62376221 18.39064453 20.56002441 18.68847656 21.5246582 C19.53872577 24.34045265 20.3423498 27.1647389 21.125 30 C21.44428467 31.14855469 21.44428467 31.14855469 21.77001953 32.3203125 C27.77175742 54.64292171 29.32838698 78.78749993 29.3125 101.8125 C29.31169434 103.05427002 29.31088867 104.29604004 29.31005859 105.57543945 C29.25557331 113.97418577 28.91217441 122.31495407 28.25 130.6875 C28.17160889 131.68305908 28.09321777 132.67861816 28.01245117 133.7043457 C27.46209135 139.90710674 26.47637362 145.92213498 25.125 152 C22.98652465 150.00900571 21.24850045 148.20770531 19.75 145.6875 C17.90790151 142.6409525 15.72373764 140.17525712 13.33203125 137.55078125 C12.125 136 12.125 136 12.125 134 C11.55523438 133.74605469 10.98546875 133.49210938 10.3984375 133.23046875 C7.85495515 131.85384171 5.93279437 130.20847668 3.75 128.3125 C-13.84892601 114.15126508 -35.72908299 109.71644178 -57.875 112 C-69.91693301 113.96546493 -82.71020247 118.63449695 -90.875 128 C-95.54166667 132.88888889 -95.54166667 132.88888889 -98.875 134 C-99.97074258 136.30565893 -99.97074258 136.30565893 -100.875 139 C-102.10367242 141.48491121 -103.37774026 143.94277166 -104.65625 146.40234375 C-109.6734913 157.09614331 -110.50912963 170.66956506 -106.9375 181.96484375 C-102.81038569 192.73063865 -96.35891535 202.15162603 -85.6015625 207.03125 C-78.76562326 209.42051032 -72.04341631 209.30336558 -64.875 209 C-64.875 205.44431802 -68.03497599 203.01772554 -70.24609375 200.38671875 C-74.86958831 193.6122459 -73.45444785 182.92736874 -72.3125 175.1875 C-68.8305449 167.46664304 -63.59693381 161.568583 -55.875 158 C-46.53433748 154.61803599 -35.22408084 154.67236106 -25.875 158 C-22.79744074 159.54604945 -19.81937319 161.21429219 -16.875 163 C-16.875 163.66 -16.875 164.32 -16.875 165 C-15.9778125 165.39638672 -15.9778125 165.39638672 -15.0625 165.80078125 C-5.68702815 170.94054885 -2.13829259 182.63737473 1.07421875 192.0859375 C3.78688932 201.40377913 3.32708658 211.19602746 3.3125 220.8125 C3.31189575 221.5451004 3.3112915 222.27770081 3.31066895 223.03250122 C3.25615325 247.40201606 0.32701419 269.39616037 -9.04638672 291.98242188 C-10.21233147 294.82136337 -11.29274554 297.69077531 -12.375 300.5625 C-16.66351922 311.71264997 -21.18842926 322.74598816 -26.28125 333.5546875 C-27.48321252 336.15304765 -28.64576106 338.75558063 -29.78125 341.3828125 C-33.16777321 349.20197492 -36.66267015 356.67384018 -41.10546875 363.96484375 C-43.14500054 367.46311351 -44.91626895 371.04853694 -46.6875 374.6875 C-52.9802062 387.48601807 -60.50589621 399.5195302 -68.125 411.5625 C-68.70330566 412.47854004 -69.28161133 413.39458008 -69.87744141 414.33837891 C-72.94000149 419.13841207 -76.1292817 423.75653242 -79.59277344 428.27514648 C-81.18989909 430.42360283 -82.52117598 432.69234542 -83.875 435 C-98.56278281 455.80769231 -98.56278281 455.80769231 -106.875 463 C-107.535 463 -108.195 463 -108.875 463 C-108.2348083 459.40827513 -106.71456818 457.00704154 -104.6875 454 C-101.50948965 449.12878741 -98.8442509 444.16350908 -96.33203125 438.921875 C-94.96320508 436.17688312 -93.47886122 433.52479584 -91.94360352 430.87011719 C-86.88526543 422.01773662 -82.10457501 412.94243134 -78.04296875 403.58984375 C-77.07118726 401.43502393 -76.03084008 399.35959227 -74.9453125 397.26171875 C-72.76208484 392.9190989 -71.12720585 388.47123686 -69.5625 383.875 C-69.11910278 382.58009644 -69.11910278 382.58009644 -68.66674805 381.2590332 C-68.04487413 379.43216566 -67.42652454 377.60409502 -66.81152344 375.77490234 C-66.19466504 373.94716186 -65.57048921 372.12187218 -64.93847656 370.29931641 C-54.75840283 340.91810674 -47.82135277 305.52131104 -61.8684082 276.19628906 C-69.45237745 261.47668014 -79.91787602 251.97737058 -94.875 245 C-95.89787109 244.51466797 -95.89787109 244.51466797 -96.94140625 244.01953125 C-115.60776342 236.07725833 -139.21598917 239.4562304 -157.609375 246.57421875 C-168.87783352 251.49406009 -177.28912427 258.39222951 -185.875 267 C-186.51566406 267.6290625 -187.15632812 268.258125 -187.81640625 268.90625 C-193.03297781 274.46332884 -196.48188292 281.82064875 -198.875 289 C-199.865 289 -200.855 289 -201.875 289 C-207.78105523 243.67312044 -204.56279118 202.37271929 -178.72265625 163.39453125 C-178.11292969 162.60433594 -177.50320313 161.81414062 -176.875 161 C-176.215 161 -175.555 161 -174.875 161 C-174.66746094 160.32066406 -174.45992187 159.64132812 -174.24609375 158.94140625 C-172.41495889 155.0130742 -169.80603312 152.15394082 -166.9375 148.9375 C-165.86482707 147.71837831 -164.79318251 146.49835089 -163.72265625 145.27734375 C-163.22266113 144.71128418 -162.72266602 144.14522461 -162.20751953 143.56201172 C-160.75059702 141.89724864 -160.75059702 141.89724864 -159.12109375 139.56640625 C-158.70988281 139.04949219 -158.29867187 138.53257812 -157.875 138 C-157.215 138 -156.555 138 -155.875 138 C-155.606875 137.360625 -155.33875 136.72125 -155.0625 136.0625 C-153.875 134 -153.875 134 -150.875 133 C-150.17122163 131.68587739 -149.50817753 130.34955861 -148.875 129 C-147.44213867 127.34008789 -147.44213867 127.34008789 -145.79296875 125.72265625 C-145.19033203 125.12646484 -144.58769531 124.53027344 -143.96679688 123.91601562 C-143.02416992 122.99852539 -143.02416992 122.99852539 -142.0625 122.0625 C-141.44568359 121.45470703 -140.82886719 120.84691406 -140.19335938 120.22070312 C-138.98545218 119.03076692 -137.77443585 117.84397706 -136.56005859 116.66064453 C-135.02862022 115.15139449 -133.5395405 113.60963504 -132.05078125 112.05859375 C-129.875 110 -129.875 110 -127.875 110 C-127.61203125 109.39800781 -127.3490625 108.79601562 -127.078125 108.17578125 C-125.80920534 105.8810142 -124.67369084 104.78861649 -122.625 103.1875 C-119.46278973 100.58950152 -116.88006142 97.81165469 -114.28515625 94.65625 C-112.875 93 -112.875 93 -110.1875 90.4375 C-103.8466761 83.75392887 -103.57848454 76.55515943 -103.66015625 67.7890625 C-104.46789461 53.54349505 -110.55546436 40.46521735 -116.640625 27.77734375 C-118.96071699 22.55713677 -119.1188007 17.82542247 -119.1875 12.1875 C-119.23100586 11.01477539 -119.23100586 11.01477539 -119.27539062 9.81835938 C-119.34744048 3.18423005 -117.59902365 -0.61494661 -113.41015625 -5.8203125 C-85.70343185 -30.36685348 -28.61480639 -15.10147116 0 0 Z " fill="#00A28F" transform="translate(986.875,291)"/>
<path d="M0 0 C3.48948367 2.70848567 4.43035215 6.46101823 5.7421875 10.5 C5.99098663 11.2437236 6.23978577 11.9874472 6.49612427 12.75370789 C7.29917942 15.16593197 8.08791799 17.58252104 8.875 20 C9.42056322 21.65731113 9.96613615 23.31461907 10.51171875 24.97192383 C13.86636319 35.2220365 17.06363932 45.47875401 19.52636719 55.98486328 C20.02292771 58.09754912 20.54495321 60.2028969 21.0703125 62.30859375 C23.18013264 70.87430908 24.89082445 79.4682565 26.34765625 88.16796875 C26.86253431 91.19249198 27.44447229 94.18359787 28.0625 97.1875 C36.58583253 143.92377339 33.6148057 195.8148339 13 239 C12.43345703 240.21042969 12.43345703 240.21042969 11.85546875 241.4453125 C9.39077546 246.56248524 6.61870359 251.25484934 3.390625 255.92578125 C1.84137035 258.16365014 1.84137035 258.16365014 0.1875 261.375 C-2.82357583 266.75544698 -7.0396527 271.30804655 -11 276 C-11.90574808 277.09308747 -12.81067857 278.18685285 -13.71484375 279.28125 C-21.12724722 288.21110202 -28.6896805 296.5439565 -38.0546875 303.4921875 C-40.02549531 304.94487083 -40.02549531 304.94487083 -41.6328125 306.6953125 C-43 308 -43 308 -45 308 C-45.33 308.99 -45.66 309.98 -46 311 C-48.0625 311.6875 -48.0625 311.6875 -50 312 C-50 312.66 -50 313.32 -50 314 C-52.0077714 315.61415056 -54.01149677 317.09759682 -56.125 318.5625 C-56.75374023 319.00432617 -57.38248047 319.44615234 -58.03027344 319.90136719 C-67.005135 326.16009344 -76.23000854 332.03724446 -85.6484375 337.60546875 C-87.24533034 338.55246334 -88.8336869 339.51397202 -90.4140625 340.48828125 C-95.64930658 343.7042169 -100.97556285 346.54421749 -106.4921875 349.24609375 C-109.90986587 350.95493293 -113.28222627 352.73179264 -116.65380859 354.52905273 C-124.75510863 358.84574991 -132.92511513 362.93812143 -141.24243164 366.82226562 C-145.70615557 368.90726735 -150.11795022 371.0588744 -154.5 373.3125 C-162.53363723 377.37189973 -170.78249861 380.94491203 -179.01489258 384.5793457 C-188.92845191 388.95641134 -198.82303006 393.36595491 -208.5 398.25 C-213.1068225 400.55341125 -217.8402502 402.51234921 -222.5859375 404.5078125 C-231.22427969 408.17501177 -239.51119073 412.2864679 -247.76953125 416.73828125 C-251.87071016 418.94588296 -256.01710637 421.05166954 -260.1875 423.125 C-261.18269653 423.6212085 -261.18269653 423.6212085 -262.19799805 424.12744141 C-265.27295046 425.65715163 -268.35402594 427.17139351 -271.4453125 428.66796875 C-278.3870374 432.05830075 -285.12205643 435.70225283 -291.8125 439.5625 C-292.58891846 440.00956299 -293.36533691 440.45662598 -294.1652832 440.91723633 C-298.90210651 443.6800048 -303.47608133 446.6219845 -308.02026367 449.69018555 C-310.20232308 451.13385909 -312.43150074 452.4134534 -314.75 453.625 C-318.14366629 455.46323591 -321.0282723 457.52356025 -324 460 C-324.69738281 460.41121094 -325.39476562 460.82242187 -326.11328125 461.24609375 C-337.53255438 468.18419069 -348.08280773 476.61186256 -358.08203125 485.44140625 C-365.56183206 492 -365.56183206 492 -368 492 C-367.67 490.35 -367.34 488.7 -367 487 C-366.34 487 -365.68 487 -365 487 C-364.82561401 486.11139282 -364.82561401 486.11139282 -364.64770508 485.20483398 C-363.96289763 482.8737009 -363.1508627 481.60151066 -361.63671875 479.72265625 C-361.16169922 479.12646484 -360.68667969 478.53027344 -360.19726562 477.91601562 C-359.69904297 477.30435547 -359.20082031 476.69269531 -358.6875 476.0625 C-358.20087891 475.45470703 -357.71425781 474.84691406 -357.21289062 474.22070312 C-356.2588659 473.03041925 -355.3004832 471.8436129 -354.33740234 470.66064453 C-353.11992054 469.14890462 -351.94235226 467.60523863 -350.76953125 466.05859375 C-350.18558594 465.37925781 -349.60164062 464.69992187 -349 464 C-348.34 464 -347.68 464 -347 464 C-346.62875 463.1646875 -346.62875 463.1646875 -346.25 462.3125 C-343.63841951 457.48107609 -339.86292013 453.84046129 -336 450 C-334.71029297 448.67548828 -334.71029297 448.67548828 -333.39453125 447.32421875 C-332.54246094 446.45410156 -331.69039062 445.58398438 -330.8125 444.6875 C-329.52279297 443.36298828 -329.52279297 443.36298828 -328.20703125 442.01171875 C-326 440 -326 440 -324 440 C-323.74089844 439.40445312 -323.48179687 438.80890625 -323.21484375 438.1953125 C-321.90209487 435.82307818 -320.64218073 434.59581691 -318.5625 432.875 C-315.19639009 430.03142701 -311.92626736 427.11320369 -308.6875 424.125 C-303.29303346 419.20386409 -297.72211131 414.53502825 -292 410 C-291.27683594 409.42121094 -290.55367187 408.84242188 -289.80859375 408.24609375 C-288 407 -288 407 -286 407 C-285.67 406.01 -285.34 405.02 -285 404 C-284.01 404 -283.02 404 -282 404 C-281.67 403.01 -281.34 402.02 -281 401 C-279.11927096 399.42940631 -277.17079346 397.93890698 -275.1875 396.5 C-273.60001953 395.33984375 -273.60001953 395.33984375 -271.98046875 394.15625 C-270.99691406 393.4446875 -270.01335937 392.733125 -269 392 C-268.25363281 391.4121875 -267.50726562 390.824375 -266.73828125 390.21875 C-265 389 -265 389 -263 389 C-263 388.34 -263 387.68 -263 387 C-260.82300127 385.31506263 -258.64488281 383.73805375 -256.375 382.1875 C-255.1311303 381.32925587 -253.88892844 380.46858929 -252.6484375 379.60546875 C-252.03709961 379.18056152 -251.42576172 378.7556543 -250.79589844 378.31787109 C-249.02159456 377.01584658 -247.38030089 375.6265097 -245.7265625 374.17578125 C-243 372 -243 372 -240 372 C-240 371.34 -240 370.68 -240 370 C-237.73948051 368.25296666 -235.47865985 366.61209579 -233.125 365 C-228.34496894 361.7705083 -228.34496894 361.7705083 -224 358 C-223.01 358 -222.02 358 -221 358 C-221 357.34 -221 356.68 -221 356 C-219.5390625 354.7109375 -219.5390625 354.7109375 -217.625 353.375 C-216.99851562 352.92898438 -216.37203125 352.48296875 -215.7265625 352.0234375 C-214 351 -214 351 -212 351 C-212 350.34 -212 349.68 -212 349 C-210.589027 348.01168806 -209.17063473 347.03214294 -207.71533203 346.11035156 C-203.93944146 343.66617987 -200.4557398 340.77651912 -196.90234375 338.0234375 C-194.28775037 336.20061197 -192.00026999 335.02394535 -189 334 C-189 333.34 -189 332.68 -189 332 C-187.0859375 330.44140625 -187.0859375 330.44140625 -184.375 328.5625 C-174.41504815 321.48838036 -164.9314786 313.85895068 -155.63574219 305.93676758 C-152.24386684 303.04717889 -148.83259011 300.18617109 -145.375 297.375 C-144.59898437 296.74335937 -143.82296875 296.11171875 -143.0234375 295.4609375 C-141 294 -141 294 -138 293 C-137.67 292.01 -137.34 291.02 -137 290 C-135.38542921 288.56418526 -133.70780925 287.19855217 -132 285.875 C-127.23020743 282.08777226 -122.9583846 278.07532549 -118.77734375 273.65234375 C-117 272 -117 272 -115 272 C-115 271.34 -115 270.68 -115 270 C-113.56640625 268.58984375 -113.56640625 268.58984375 -111.5625 266.9375 C-102.93155911 259.58747613 -95.4056925 251.32693724 -88.19140625 242.609375 C-87.69624512 242.01479492 -87.20108398 241.42021484 -86.69091797 240.80761719 C-85.69885901 239.61482659 -84.71207214 238.41762876 -83.73095703 237.21582031 C-82.53078855 235.77323229 -81.26994165 234.38156173 -80 233 C-79.34 233 -78.68 233 -78 233 C-77.34 231.35 -76.68 229.7 -76 228 C-75.34 228 -74.68 228 -74 228 C-73.67 226.68 -73.34 225.36 -73 224 C-72.34 224 -71.68 224 -71 224 C-70.74734375 223.44828125 -70.4946875 222.8965625 -70.234375 222.328125 C-68.7903156 219.6045193 -67.07923117 217.23151516 -65.25 214.75 C-64.53714844 213.77804687 -63.82429688 212.80609375 -63.08984375 211.8046875 C-61.35400877 209.47509962 -59.58925574 207.17324508 -57.8125 204.875 C-55.35865817 201.61414602 -53.3879947 198.24673131 -51.46484375 194.65234375 C-50.01053588 192.01907697 -48.46784583 189.45058943 -46.89941406 186.8840332 C-37.89642223 172.12700516 -30.44750651 157.03593077 -24 141 C-23.6707251 140.19908936 -23.3414502 139.39817871 -23.00219727 138.57299805 C-16.65467863 123.01404076 -12.16577083 106.86071511 -8.55419922 90.47021484 C-8.03491981 88.15564698 -7.47855407 85.8536926 -6.91015625 83.55078125 C-0.39264223 56.31169153 -0.41080391 27.85522834 0 0 Z " fill="#D9447B" transform="translate(1141,409)"/>
<path d="M0 0 C9.72289324 3.56911572 21.3317521 0.95688391 31.25 -0.625 C40.2458998 -2.02998877 49.15938471 -3.12216792 58.25 -3.6875 C59.40072804 -0.23531587 58.78151813 1.42662359 57.84912109 4.84399414 C57.17700097 7.61327145 56.75647483 10.3627936 56.3515625 13.18359375 C55.25240865 20.49898789 53.86735125 27.74302152 52.4375 35 C52.16880158 36.37526567 51.90041576 37.75059246 51.63232422 39.12597656 C51.09206483 41.89653441 50.55074397 44.6668806 50.00830078 47.43701172 C48.95682914 52.81082396 47.91232663 58.18594004 46.875 63.5625 C46.58665283 65.05535522 46.58665283 65.05535522 46.29248047 66.57836914 C44.90848889 73.78378215 43.56396174 80.99603219 42.23046875 88.2109375 C41.96345154 89.65388184 41.96345154 89.65388184 41.69104004 91.12597656 C40.79599978 95.96390151 39.90373874 100.80231067 39.01611328 105.64160156 C38.68401221 107.44077237 38.35182203 109.23992672 38.01953125 111.0390625 C37.8707402 111.85579437 37.72194916 112.67252625 37.56864929 113.51400757 C36.64372636 118.50466683 35.50439808 123.3945158 34.25 128.3125 C33.90714887 130.34928966 33.59299923 132.39119132 33.3125 134.4375 C32.62017027 139.17940916 31.7356698 143.82394154 30.6875 148.5 C29.45862301 154.11683676 28.54516356 159.57022716 28.25 165.3125 C28.17072266 166.83230469 28.17072266 166.83230469 28.08984375 168.3828125 C27.9291455 174.07013329 27.80453076 178.51345357 31.25 183.3125 C34.40262807 186.46512807 37.99074008 187.24768502 42.25 188.3125 C41.93450694 195.88433336 38.32212533 200.32571149 33 205.5 C20.38582832 213.81388588 6.82744644 217.50529707 -8.21484375 214.65625 C-18.12438196 211.97362122 -24.94224413 207.70469976 -30.3125 198.875 C-31.14336926 197.36412391 -31.96287579 195.84662052 -32.75 194.3125 C-33.28625 194.7971875 -33.8225 195.281875 -34.375 195.78125 C-52.21935281 211.04286753 -74.56820998 216.9549164 -97.75 215.3125 C-112.14743733 213.4965804 -123.70280023 207.89863003 -133.75 197.3125 C-135.96189458 194.42448044 -137.89701238 191.44011849 -139.75 188.3125 C-140.24757813 187.52875 -140.74515625 186.745 -141.2578125 185.9375 C-150.40801329 169.8408117 -152.0318668 147.39979322 -150.75 129.3125 C-150.68039062 128.3229834 -150.61078125 127.3334668 -150.5390625 126.31396484 C-148.4538846 99.10002373 -142.58899502 71.16643454 -126.75 48.3125 C-126.35603027 47.73322754 -125.96206055 47.15395508 -125.55615234 46.55712891 C-124.21599091 44.59205242 -122.86161576 42.63776505 -121.5 40.6875 C-121.06308838 40.05787354 -120.62617676 39.42824707 -120.17602539 38.77954102 C-119.08543805 37.25246397 -117.92328479 35.77699576 -116.75 34.3125 C-116.09 34.3125 -115.43 34.3125 -114.75 34.3125 C-114.65203125 33.71308594 -114.5540625 33.11367187 -114.453125 32.49609375 C-113.60747621 29.86988445 -112.64989182 29.06219771 -110.5 27.375 C-108.33727854 25.62297716 -106.38586554 23.93852407 -104.4375 21.9375 C-78.13671165 -3.75164211 -34.67116472 -13.07171381 0 0 Z M-61.5625 36.0625 C-69.56779795 47.42096048 -74.97266966 59.97786661 -78.75 73.3125 C-79.05848877 74.3945874 -79.36697754 75.4766748 -79.68481445 76.59155273 C-82.12410489 85.41052587 -83.99537916 94.20533765 -85.4375 103.25 C-85.5442807 103.91248749 -85.6510614 104.57497498 -85.76107788 105.25753784 C-87.78018014 117.92684152 -88.63573331 130.48669918 -88.75 143.3125 C-88.77643697 144.70184047 -88.80369206 146.09116578 -88.83203125 147.48046875 C-88.87141591 150.76371711 -88.83904618 154.03051221 -88.75 157.3125 C-88.73324219 158.33085938 -88.71648438 159.34921875 -88.69921875 160.3984375 C-88.29998127 169.27291628 -85.99509915 178.23385765 -80 185.0625 C-74.6933826 189.00155301 -66.99934965 188.23888741 -60.70996094 187.61962891 C-54.47629867 186.6428044 -49.66201168 183.12089502 -45.9296875 178.1015625 C-41.52717826 171.42490941 -37.8209615 164.69534214 -34.75 157.3125 C-34.2653125 156.25804687 -33.780625 155.20359375 -33.28125 154.1171875 C-31.48111484 149.89743746 -30.4353033 145.59353385 -29.4375 141.125 C-29.22947754 140.20589844 -29.02145508 139.28679687 -28.80712891 138.33984375 C-26.41758464 127.37998855 -24.65703937 116.30427457 -22.89331055 105.22973633 C-21.61464907 97.23882315 -20.19652022 89.337987 -18.40283203 81.44335938 C-17.70117164 78.07832839 -17.2041705 74.71915411 -16.75 71.3125 C-16.1321987 66.7070721 -15.33673733 62.21961753 -14.3125 57.6875 C-13.01432929 51.70639933 -11.80827295 45.71602156 -10.75 39.6875 C-10.57670166 38.8217334 -10.40340332 37.9559668 -10.22485352 37.06396484 C-9.83609698 34.72774289 -9.56231247 32.67367355 -9.75 30.3125 C-14.7820173 24.43388622 -23.8840118 21.8828917 -31.32421875 20.78515625 C-43.80801552 20.22208071 -54.17608988 26.04808292 -61.5625 36.0625 Z " fill="#05767E" transform="translate(904.75,995.6875)"/>
<path d="M0 0 C-0.72129025 6.58569358 -1.92564729 13.01097571 -3.25 19.5 C-3.46962402 20.58861328 -3.68924805 21.67722656 -3.91552734 22.79882812 C-5.44903743 30.37360392 -7.0332667 37.93729309 -8.625 45.5 C-10.14012916 52.69988917 -11.54509675 59.89433029 -12.76831055 67.1496582 C-13.98338115 74.19806572 -15.47057669 81.18793542 -16.9375 88.1875 C-19.49052813 100.42731657 -21.95665455 112.66386714 -24 125 C-24.18336914 126.10230957 -24.36673828 127.20461914 -24.55566406 128.34033203 C-30.52536211 157.92788985 -30.52536211 157.92788985 -23 186 C-18.27106679 190.72893321 -13.82756305 190.49293369 -7.5534668 190.50415039 C-0.97416384 190.3246323 3.27972883 188.73053263 8 184 C9.69178264 182.15742804 11.2954174 180.31201471 12.80859375 178.3203125 C13.20175781 177.88460938 13.59492187 177.44890625 14 177 C14.66 177 15.32 177 16 177 C16.11988281 176.42378906 16.23976563 175.84757812 16.36328125 175.25390625 C17.03310674 172.8828062 17.98373836 171.08401347 19.1875 168.9375 C27.17815207 153.07133494 29.96558685 135.32706102 33 118 C33.30203164 116.2929596 33.6041103 114.58592752 33.90625 112.87890625 C34.28918161 110.70772567 34.67044102 108.53633971 35.04541016 106.36376953 C35.74623555 102.32210647 36.57304749 98.33484352 37.51025391 94.34277344 C38.06580904 91.68519265 38.45658268 89.02722766 38.84375 86.33984375 C40.11680412 77.94555146 41.78058075 69.63748752 43.4375 61.3125 C45.71573222 49.86514656 47.82101092 38.40978905 49.69204712 26.88851929 C50.31176649 23.08809377 50.96396834 19.29342032 51.625 15.5 C51.74617188 14.78714844 51.86734375 14.07429687 51.9921875 13.33984375 C52.88381469 8.23237063 52.88381469 8.23237063 54 6 C56.61352539 5.52929688 56.61352539 5.52929688 60.09765625 5.21875 C61.36649658 5.09991455 62.63533691 4.9810791 63.94262695 4.85864258 C65.31590249 4.73891733 66.68919382 4.61937325 68.0625 4.5 C70.82848757 4.24735345 73.59392502 3.98892451 76.359375 3.73046875 C77.03486893 3.66824631 77.71036285 3.60602386 78.40632629 3.54191589 C83.23265805 3.09154742 88.01464012 2.49721482 92.8125 1.8125 C100.88071812 0.73851277 108.87995756 0.81910797 117 1 C116.39412398 9.31625428 114.8765053 17.3946174 113.25 25.5625 C112.98031764 26.93571345 112.71103634 28.30900572 112.44213867 29.68237305 C110.96896781 37.188545 109.45996229 44.68735245 107.94433594 52.18505859 C107.73583008 53.21711426 107.52732422 54.24916992 107.3125 55.3125 C107.0016748 56.85091553 107.0016748 56.85091553 106.68457031 58.42041016 C105.37707504 64.9504696 104.21362543 71.48870698 103.15893555 78.0637207 C101.5515125 87.96637722 99.57149559 97.80142735 97.65283203 107.64746094 C96.19944159 115.11116982 94.76209435 122.57791826 93.3359375 130.046875 C92.49863899 134.42835488 91.64457225 138.80605911 90.77607727 143.181427 C90.21015289 146.04320903 89.65366926 148.90678547 89.09860229 151.77069092 C88.82911751 153.15010254 88.55575539 154.52876359 88.27810669 155.90655518 C85.00951266 169.52908069 85.00951266 169.52908069 86.89331055 182.99414062 C88.07898891 184.80194444 88.07898891 184.80194444 90 187 C90 187.66 90 188.32 90 189 C93.3 189.99 96.6 190.98 100 192 C100.10906587 197.88955685 98.83071604 200.72568711 94.9375 205.1875 C85.25177356 215.08543328 73.64088168 219.05445249 59.875 219.5 C50.48469341 219.18132444 41.09669362 216.93395356 33.72265625 210.859375 C30.46493355 207.34310288 28.20689097 203.22987436 26 199 C25.5875 199.37511719 25.175 199.75023437 24.75 200.13671875 C7.89119423 215.07633012 -15.0176453 220.19564893 -37.16796875 219.37890625 C-49.80290383 218.57199048 -60.54824224 215.31789738 -71 208 C-71.61230469 207.58878906 -72.22460938 207.17757813 -72.85546875 206.75390625 C-82.96814357 199.24089076 -87.21603393 185.92602556 -89 174 C-89.31363432 170.24498562 -89.38051108 166.51712823 -89.375 162.75 C-89.37483887 161.69167969 -89.37467773 160.63335938 -89.37451172 159.54296875 C-89.15618906 143.67665662 -87.05750102 127.37360394 -83.42871094 111.93164062 C-82.79132894 109.05979191 -82.4288961 106.16721087 -82.0625 103.25 C-81.29196082 97.60140176 -80.19049338 92.14318331 -78.78125 86.62109375 C-78.0882812 83.40918335 -77.56459469 80.23676914 -77.08203125 76.98828125 C-76.01289019 69.85847849 -74.62913544 62.81261851 -73.1875 55.75 C-72.78940457 53.78124385 -72.39131213 51.81248708 -71.99349976 49.84367371 C-71.59141106 47.85540637 -71.18807566 45.86739461 -70.78466797 43.87939453 C-70.03851811 40.19043332 -69.30038386 36.49999407 -68.56640625 32.80859375 C-68.34380127 31.68936523 -68.12119629 30.57013672 -67.8918457 29.41699219 C-67.47716448 27.33049421 -67.06290918 25.24391153 -66.64916992 23.15722656 C-65.50538847 17.42022612 -64.29013851 11.70593076 -63 6 C-62.21052979 5.91959473 -61.42105957 5.83918945 -60.60766602 5.75634766 C-56.92580547 5.38057649 -53.24411061 5.00321023 -49.5625 4.625 C-48.89829041 4.55686096 -48.23408081 4.48872192 -47.54974365 4.41851807 C-39.9002454 3.63236791 -32.25683051 2.81880057 -24.625 1.875 C-16.4884383 0.8897453 -8.20561418 0 0 0 Z " fill="#05767E" transform="translate(1071,992)"/>
<path d="M0 0 C1.921875 1.48046875 1.921875 1.48046875 3.25 2.8125 C3.25 3.4725 3.25 4.1325 3.25 4.8125 C4.14332031 5.14701172 4.14332031 5.14701172 5.0546875 5.48828125 C9.6986521 8.28953392 11.41015315 13.92422656 13.25 18.8125 C17.10120257 34.87950799 16.12704539 53.56470182 7.4375 67.91796875 C6.8496875 68.85576172 6.8496875 68.85576172 6.25 69.8125 C5.5075 71.17375 5.5075 71.17375 4.75 72.5625 C-6.76657601 89.83736401 -30.13229874 99.46388694 -49.66259766 103.39941406 C-88.35018259 110.51451059 -88.35018259 110.51451059 -105.75 106.8125 C-107.5837725 133.51197601 -107.5837725 133.51197601 -96.75 156.8125 C-88.78412148 163.21983707 -78.56920196 164.44288255 -68.57568359 163.63720703 C-55.74492295 162.18534128 -45.33247083 158.66064289 -34.72265625 151.14453125 C-32.75 149.8125 -32.75 149.8125 -30.5546875 148.7421875 C-28.13703636 147.49673085 -27.88310511 146.27866995 -26.75 143.8125 C-25.14082619 141.43705294 -23.45055373 139.12317606 -21.75 136.8125 C-19.09303932 136.96432632 -17.30765476 137.28574024 -15.33984375 139.14453125 C-9.0727701 146.65405682 -10.01891457 154.82106766 -10.47607422 164.24609375 C-11.38864204 172.79592699 -16.83382577 179.89632577 -22.75 185.8125 C-23.41 185.8125 -24.07 185.8125 -24.75 185.8125 C-24.95238281 186.38226562 -25.15476562 186.95203125 -25.36328125 187.5390625 C-31.27140442 197.22505597 -47.78656637 202.73071296 -58.1875 205.44970703 C-82.19723089 211.15834598 -111.05956855 212.0765249 -133.1875 199.46875 C-134.033125 198.9221875 -134.87875 198.375625 -135.75 197.8125 C-136.69875 197.2040625 -137.6475 196.595625 -138.625 195.96875 C-154.09805903 185.37306828 -163.80445687 169.63689351 -167.38623047 151.24658203 C-168.78807648 141.86644465 -168.72544428 132.27656265 -168.75 122.8125 C-168.75402832 121.87535156 -168.75805664 120.93820312 -168.76220703 119.97265625 C-168.65468656 85.51550762 -156.90708511 49.75574328 -133.75 23.8125 C-131.99314163 22.15385111 -130.19957947 20.6100929 -128.31640625 19.09765625 C-126.56070522 17.71179562 -126.56070522 17.71179562 -124.5 15.4375 C-109.49704505 1.11649755 -90.060429 -7.14394907 -69.75 -10.1875 C-68.67854736 -10.35644775 -67.60709473 -10.52539551 -66.50317383 -10.69946289 C-44.87356244 -13.51202993 -18.33224931 -13.14024863 0 0 Z M-80.921875 26.421875 C-87.05212202 34.43835187 -91.15717108 43.4409952 -94.75 52.8125 C-95.09804688 53.67101563 -95.44609375 54.52953125 -95.8046875 55.4140625 C-98.00812617 61.06784699 -99.58841679 66.79575631 -101 72.6875 C-101.17539307 73.41348389 -101.35078613 74.13946777 -101.53149414 74.88745117 C-102.38323988 78.59037605 -102.95876562 82.00998341 -102.75 85.8125 C-84.67776973 86.53219059 -68.5978003 81.48585232 -54.75 69.8125 C-54.08355469 69.25820312 -53.41710937 68.70390625 -52.73046875 68.1328125 C-43.79721265 59.9975161 -38.61265503 47.44198433 -37.6796875 35.5 C-37.86386874 28.46018367 -39.77210033 21.63332533 -43.75 15.8125 C-56.74213644 6.15168059 -72.22454521 16.21196611 -80.921875 26.421875 Z " fill="#05767E" transform="translate(553.75,1002.1875)"/>
<path d="M0 0 C0 0.66 0 1.32 0 2 C0.69609375 2.21785156 1.3921875 2.43570312 2.109375 2.66015625 C5.73451947 4.3404597 8.37788622 6.7239535 11.25 9.4375 C11.81992676 9.97101074 12.38985352 10.50452148 12.97705078 11.05419922 C21.10626496 18.80339381 27.81633319 27.64908922 34 37 C34.46664062 37.69609375 34.93328125 38.3921875 35.4140625 39.109375 C44.48174687 53.3947772 51.25367728 69.18270337 55.3828125 85.56542969 C55.7791112 87.12867757 56.19424146 88.68733899 56.6328125 90.23925781 C60.35859892 103.55658619 60.36707865 116.96274291 60.375 130.6875 C60.37799103 132.07717987 60.37799103 132.07717987 60.38104248 133.49493408 C60.37655604 151.92155592 60.37655604 151.92155592 58 161 C57.34 161 56.68 161 56 161 C55.8047876 160.47792969 55.6095752 159.95585938 55.40844727 159.41796875 C46.75143595 136.48655229 35.78393147 112.28132271 12.375 101.125 C1.90049459 96.74341112 -6.29809173 95.93406779 -17.125 99.8046875 C-24.1567845 102.72822834 -27.74856116 106.13585134 -31 113 C-36.96076935 129.69925458 -35.09553 146.06752214 -27.58984375 161.94140625 C-21.98930651 172.71590418 -15.12715108 183.07900878 -7.19140625 192.296875 C-5 195 -5 195 -5 197 C-4.360625 197.268125 -3.72125 197.53625 -3.0625 197.8125 C-1 199 -1 199 0 202 C2.00016466 203.20882096 2.00016466 203.20882096 4 204 C4 204.66 4 205.32 4 206 C4.639375 206.268125 5.27875 206.53625 5.9375 206.8125 C8 208 8 208 9 211 C10.32237698 211.68814341 11.65924125 212.34839567 13 213 C15.37575372 214.73249104 17.65097384 216.5894857 19.9375 218.4375 C24.75901869 222.33473715 24.75901869 222.33473715 29.94140625 225.72265625 C30.62074219 226.14417969 31.30007813 226.56570313 32 227 C32 227.66 32 228.32 32 229 C32.56460938 229.10957031 33.12921875 229.21914063 33.7109375 229.33203125 C36.34124038 230.09957697 38.29745658 231.24321003 40.625 232.6875 C41.51574219 233.23148438 42.40648437 233.77546875 43.32421875 234.3359375 C44.9580592 235.3520193 46.58700432 236.37609835 48.20703125 237.4140625 C56.72566464 242.75499202 65.88232462 246.80498236 75 251 C76.42868408 251.65983887 76.42868408 251.65983887 77.88623047 252.33300781 C80.81780674 253.6851483 83.75196205 255.03148398 86.6875 256.375 C87.59532227 256.79168945 88.50314453 257.20837891 89.43847656 257.63769531 C93.44844938 259.46068036 97.41379027 261.17292778 101.58203125 262.6015625 C102.70996094 263.06304688 103.83789062 263.52453125 105 264 C105.33 264.99 105.66 265.98 106 267 C99.10894002 266.50941584 92.70578066 265.37604255 86.0625 263.5 C85.13373047 263.24154297 84.20496094 262.98308594 83.24804688 262.71679688 C66.16293318 257.86268745 49.14647247 252.44180994 33 245 C31.90171875 244.53207031 30.8034375 244.06414062 29.671875 243.58203125 C25.57668417 241.81761393 21.53586552 239.95769624 17.5 238.0625 C16.77941406 237.72798828 16.05882812 237.39347656 15.31640625 237.04882812 C8.85118253 234.01496636 2.76195768 230.55101268 -3.25 226.6875 C-6.11654691 224.84724766 -8.98354794 223.01029653 -11.87109375 221.203125 C-24.3435358 213.38406285 -24.3435358 213.38406285 -28 210 C-28 209.34 -28 208.68 -28 208 C-28.556875 207.76152344 -29.11375 207.52304687 -29.6875 207.27734375 C-32.52296753 205.71113111 -34.62722978 203.76526991 -37 201.5625 C-40.52881363 198.29566918 -40.52881363 198.29566918 -44.3125 195.33984375 C-44.869375 194.89769531 -45.42625 194.45554687 -46 194 C-46 193.34 -46 192.68 -46 192 C-46.99 191.67 -47.98 191.34 -49 191 C-51.54741214 188.52997759 -53.74270945 185.73488097 -56 183 C-56.65613281 182.20722656 -57.31226563 181.41445313 -57.98828125 180.59765625 C-86.95430114 144.99476189 -99.8791907 103.7071524 -97 58 C-94.64857983 35.90356631 -87.38335313 10.85024524 -69.72265625 -3.90234375 C-47.64397697 -20.40031421 -21.43703037 -14.29135358 0 0 Z " fill="#F5B901" transform="translate(590,482)"/>
<path d="M0 0 C0.969375 0.825 1.93875 1.65 2.9375 2.5 C3.63875 3.0775 4.34 3.655 5.0625 4.25 C14.39487545 15.44885055 16.72442178 29.70441683 15.6875 43.9296875 C13.57791317 59.63857513 7.63634675 73.48249758 -5.0625 83.5 C-16.9338231 90.59497045 -29.46808933 92.47453669 -43.1015625 89.93359375 C-46.85633615 88.73432658 -50.14061644 87.16780673 -53.0625 84.5 C-52.47888536 80.28415211 -50.99443796 77.4411577 -48.8125 73.8125 C-42.48633042 62.30800191 -37.36172516 47.43813809 -40.609375 34.28515625 C-41.57176346 31.6706676 -42.49343457 29.86582778 -44.8671875 28.33984375 C-49.82926129 26.4415415 -55.26297399 26.93544282 -60.25 28.5 C-63.61040107 30.88961854 -65.98021104 33.6471388 -68.546875 36.85546875 C-69.29710937 37.66951172 -69.29710937 37.66951172 -70.0625 38.5 C-70.7225 38.5 -71.3825 38.5 -72.0625 38.5 C-72.16046875 39.01304688 -72.2584375 39.52609375 -72.359375 40.0546875 C-73.1230027 42.71041496 -74.21998338 45.12346499 -75.38549805 47.62426758 C-84.51385853 67.3258515 -88.18009109 88.99842187 -91.41015625 110.33203125 C-91.89328746 113.49377092 -92.45782881 116.62101882 -93.125 119.75 C-93.92374095 123.5166758 -94.4344233 127.2767592 -94.90625 131.09765625 C-95.98884334 139.50626177 -97.49661588 147.82496626 -99.03408813 156.16040039 C-102.408848 174.40754742 -102.408848 174.40754742 -105.17553711 192.75463867 C-105.77655915 197.14840694 -106.81178375 201.24991321 -108.0625 205.5 C-140.85425384 209.51424356 -140.85425384 209.51424356 -155.75 210.75 C-156.70261719 210.82976074 -157.65523437 210.90952148 -158.63671875 210.99169922 C-163.46227076 211.37132568 -168.22234908 211.57945528 -173.0625 211.5 C-173.46462048 205.73627312 -172.27122689 200.76566671 -170.91015625 195.17578125 C-170.04070899 191.40550536 -169.33600422 187.62515485 -168.6875 183.8125 C-166.85961067 173.14387088 -164.77938226 162.52529608 -162.71972656 151.89941406 C-162.07737259 148.57692641 -161.44002439 145.25352351 -160.8046875 141.9296875 C-158.75119903 131.19301458 -156.66278225 120.46522603 -154.5 109.75 C-152.75891003 101.11911073 -151.12933097 92.47512034 -149.58178711 83.80761719 C-148.33113015 76.85298849 -146.96450321 69.92557723 -145.5625 63 C-143.98450957 55.20030413 -142.46733918 47.39528275 -141.0625 39.5625 C-139.54616748 31.1160357 -137.98145202 22.67982224 -136.375 14.25 C-136.16037109 13.11183838 -135.94574219 11.97367676 -135.72460938 10.80102539 C-135.42200195 9.22115845 -135.42200195 9.22115845 -135.11328125 7.609375 C-134.93450439 6.67061523 -134.75572754 5.73185547 -134.5715332 4.76464844 C-134.0625 2.5 -134.0625 2.5 -133.0625 0.5 C-131.06665039 0.04516602 -131.06665039 0.04516602 -128.41015625 -0.24609375 C-127.41757812 -0.35977295 -126.425 -0.47345215 -125.40234375 -0.59057617 C-124.32082031 -0.70506104 -123.23929688 -0.8195459 -122.125 -0.9375 C-121.0215625 -1.06165283 -119.918125 -1.18580566 -118.78125 -1.3137207 C-116.43024784 -1.5779434 -114.07882931 -1.83848235 -111.72705078 -2.09570312 C-106.8342838 -2.63550473 -101.94557101 -3.20826874 -97.05639648 -3.77954102 C-93.69415119 -4.17212797 -90.33166363 -4.56239925 -86.96875 -4.94921875 C-86.04384766 -5.05580811 -85.11894531 -5.16239746 -84.16601562 -5.2722168 C-82.0625 -5.5 -82.0625 -5.5 -81.0625 -5.5 C-80.51796251 4.78570815 -82.18449249 14.43924548 -84.0625 24.5 C-83.56621094 23.78714844 -83.06992187 23.07429687 -82.55859375 22.33984375 C-72.21670992 7.75916123 -59.79992189 -2.73699871 -41.76782227 -6.10742188 C-27.89153191 -8.12105556 -11.9821191 -8.09670391 0 0 Z " fill="#05767E" transform="translate(745.0625,997.5)"/>
<path d="M0 0 C2.98631778 2.91745498 5.76169875 5.91694707 8.21044922 9.30078125 C8.21044922 9.96078125 8.21044922 10.62078125 8.21044922 11.30078125 C8.87044922 11.30078125 9.53044922 11.30078125 10.21044922 11.30078125 C20.86633142 29.58938806 25.59926861 50.13514827 20.76464844 71.24755859 C18.51464889 79.66576819 15.02889992 87.05994004 10.21044922 94.30078125 C9.69740234 95.21601563 9.18435547 96.13125 8.65576172 97.07421875 C7.94033203 98.17636719 7.94033203 98.17636719 7.21044922 99.30078125 C6.55044922 99.30078125 5.89044922 99.30078125 5.21044922 99.30078125 C4.98615234 99.85894531 4.76185547 100.41710937 4.53076172 100.9921875 C-2.86399846 113.92207882 -19.73118809 121.01254123 -33.22705078 125.11328125 C-50.04279455 128.91109283 -69.41450616 127.00293217 -84.78955078 118.98828125 C-86.14275963 118.12276351 -87.47561931 117.2248371 -88.78955078 116.30078125 C-89.65451172 115.73746094 -90.51947266 115.17414063 -91.41064453 114.59375 C-107.81243163 103.42415574 -118.91029865 86.76312284 -122.78955078 67.30078125 C-123.19414887 62.6251595 -123.21013951 57.9913548 -123.16455078 53.30078125 C-123.17615234 52.10710937 -123.18775391 50.9134375 -123.19970703 49.68359375 C-123.1522494 35.22483475 -118.22767832 23.94710321 -111.78955078 11.30078125 C-111.12955078 11.30078125 -110.46955078 11.30078125 -109.78955078 11.30078125 C-109.4434375 10.21990234 -109.4434375 10.21990234 -109.09033203 9.1171875 C-107.53901314 5.75832588 -105.62781396 3.80956128 -102.97705078 1.23828125 C-102.12498047 0.40167969 -101.27291016 -0.43492187 -100.39501953 -1.296875 C-93.4513394 -7.69921875 -93.4513394 -7.69921875 -89.78955078 -7.69921875 C-89.78955078 -8.35921875 -89.78955078 -9.01921875 -89.78955078 -9.69921875 C-80.96347983 -14.10019675 -72.56943665 -17.90552789 -62.78955078 -19.69921875 C-61.69320312 -19.91191406 -61.69320312 -19.91191406 -60.57470703 -20.12890625 C-38.09149917 -23.56209628 -16.16416016 -15.25273998 0 0 Z " fill="#F5B901" transform="translate(368.78955078125,214.69921875)"/>
<path d="M0 0 C0.33 0 0.66 0 1 0 C1.09955535 5.61934653 1.03996235 11.15264383 0.5 16.75 C-2.163987 47.05767817 2.99493015 77.42624693 13 106 C13.31372559 106.90024902 13.62745117 107.80049805 13.95068359 108.72802734 C18.23323644 120.93487356 22.753178 132.98367022 28.26953125 144.6953125 C30.83097425 150.14346111 33.04516711 155.6444823 35.0625 161.3125 C35.29582031 161.96323486 35.52914062 162.61396973 35.76953125 163.28442383 C43.65593991 185.90034367 47.49480793 209.1052567 47.4375 233 C47.43754028 233.6954895 47.43758057 234.390979 47.43762207 235.10754395 C47.34785391 261.65214609 47.34785391 261.65214609 43 266 C40.76764303 264.75543833 38.53920338 263.5046061 36.3125 262.25 C35.68666016 261.90195312 35.06082031 261.55390625 34.41601562 261.1953125 C30.65341378 259.067768 27.32565473 256.78377488 24 254 C22.43198434 252.78243484 20.86391981 251.56493192 19.29492188 250.34863281 C4.39685 238.75097934 -10.94327002 226.50638961 -22 211 C-22 210.01 -22 209.02 -22 208 C-22.66 208 -23.32 208 -24 208 C-26.96844769 203.86786506 -29.44967867 199.39998017 -32 195 C-32.34933594 194.40670898 -32.69867188 193.81341797 -33.05859375 193.20214844 C-38.87525248 183.24249222 -42.89673482 173.09942289 -46 162 C-46.21172852 161.27345215 -46.42345703 160.5469043 -46.64160156 159.79833984 C-55.37921542 128.70434314 -50.09782024 94.68744629 -39 65 C-38.67386719 64.08863281 -38.34773438 63.17726563 -38.01171875 62.23828125 C-31.5820884 45.10204176 -21.96388949 27.81847656 -10.34765625 13.67578125 C-8.86424878 11.91121938 -8.86424878 11.91121938 -7.4375 9.375 C-5.35645436 5.93675068 -2.7863232 2.8947729 0 0 Z " fill="#F5B901" transform="translate(306,481)"/>
<path d="M0 0 C3.1200522 0.56222322 5.94078516 1.26264558 8.86328125 2.48828125 C9.57637451 2.78049561 10.28946777 3.07270996 11.02416992 3.3737793 C11.77931885 3.68355713 12.53446777 3.99333496 13.3125 4.3125 C26.52550951 9.55690069 39.78515441 12.20257484 53.76098633 14.57324219 C74.18709791 18.05191749 88.18825266 24.54220076 100.68359375 41.69140625 C103.39817977 45.52120965 105.94575996 49.44618497 108.41015625 53.44140625 C110.35754175 56.57540503 112.43672847 59.60786025 114.54296875 62.63671875 C116.16642557 65.26993959 117.51515464 67.97544579 118.87817383 70.75024414 C120.07226422 73.14492161 121.3177048 75.50678115 122.578125 77.8671875 C123.01640625 78.68960938 123.4546875 79.51203125 123.90625 80.359375 C124.81529307 82.06118818 125.72682235 83.76167527 126.640625 85.4609375 C127.07375 86.275625 127.506875 87.0903125 127.953125 87.9296875 C128.54335449 89.03159424 128.54335449 89.03159424 129.14550781 90.15576172 C130 92 130 92 130 94 C110.43618236 94.17678148 91.19070774 94.17965557 72 90 C71.31421875 89.85159668 70.6284375 89.70319336 69.921875 89.55029297 C51.49752313 85.46801764 33.28949287 79.23168819 20.875 64.375 C19.4546956 62.67831204 18.05393105 61.05255526 16.46875 59.5078125 C1.41276332 44.05140064 0.30716792 20.14597883 0 0 Z " fill="#F5B901" transform="translate(529,772)"/>
<path d="M0 0 C7.16767463 7.33436474 7.98780568 15.49624071 8.00439453 25.27905273 C7.80885715 38.07468123 2.63908249 47.32262627 -4.3125 57.75 C-4.9725 57.75 -5.6325 57.75 -6.3125 57.75 C-6.52132812 58.30816406 -6.73015625 58.86632812 -6.9453125 59.44140625 C-8.79677898 62.56773965 -11.33868902 64.51974708 -14.1875 66.6875 C-14.76322754 67.12698975 -15.33895508 67.56647949 -15.93212891 68.01928711 C-23.10364017 73.30433224 -31.28778767 77.34890167 -40.3125 77.75 C-41.3125 76.75 -41.3125 76.75 -41.375 73.1875 C-41.354375 72.053125 -41.33375 70.91875 -41.3125 69.75 C-40.56226563 69.49347656 -39.81203125 69.23695313 -39.0390625 68.97265625 C-27.23934366 64.55890751 -19.65089264 57.52726698 -13.3125 46.75 C-12.590625 45.656875 -11.86875 44.56375 -11.125 43.4375 C-6.20736654 34.46641972 -5.31766292 23.77589054 -6.3125 13.75 C-6.93492573 12.39544899 -7.59365823 11.05594362 -8.3125 9.75 C-8.3125 8.76 -8.3125 7.77 -8.3125 6.75 C-9.488125 6.2859375 -9.488125 6.2859375 -10.6875 5.8125 C-13.3125 4.75 -13.3125 4.75 -15.3125 3.75 C-22.52870663 3.03451209 -28.56336872 2.91263618 -34.62890625 7.16796875 C-46.38769106 18.21740691 -48.85480243 37.75982906 -52.54467773 52.81347656 C-56.55080419 69.11312492 -61.44294633 83.88962695 -69.3125 98.75 C-68.53519531 98.88664063 -67.75789063 99.02328125 -66.95703125 99.1640625 C-63.90728618 99.8397815 -61.98206798 101.13584261 -59.3125 102.75 C-57.40428919 103.49387879 -55.49425521 104.2343895 -53.56640625 104.92578125 C-50.21026438 106.15307057 -46.91446098 107.52499055 -43.609375 108.8828125 C-38.58226115 110.78080446 -33.65708059 111.68025541 -28.3125 110.75 C-23.31988434 108.1352382 -19.55069074 104.33743688 -16.3125 99.75 C-14.6625 100.41 -13.0125 101.07 -11.3125 101.75 C-10.69319113 107.64411201 -13.72192239 110.67102419 -17.171875 115.15234375 C-21.53525698 120.44732371 -25.29757784 123.5537503 -32.265625 124.57421875 C-45.70761579 125.34971822 -56.62984152 121.4918336 -68.84594727 116.11816406 C-69.87131592 115.67311523 -70.89668457 115.22806641 -71.953125 114.76953125 C-72.86610352 114.35807861 -73.77908203 113.94662598 -74.71972656 113.52270508 C-77.72510667 112.62703389 -79.34563861 112.80982821 -82.3125 113.75 C-83.1375 114.3275 -83.9625 114.905 -84.8125 115.5 C-96.96028489 123.80048144 -114.03273896 126.23906867 -128.47265625 124.3359375 C-134.74467049 123.02536736 -140.62072232 121.38307417 -144.5859375 116.03125 C-147.18011762 111.64377757 -147.86058939 107.9938158 -146.97265625 102.9765625 C-144.68886254 95.27382633 -139.24941985 89.64478049 -132.3125 85.75 C-126.59106394 83.94448935 -121.41205463 83.42578193 -115.4375 83.5 C-114.24906494 83.51015137 -114.24906494 83.51015137 -113.03662109 83.52050781 C-101.06350708 83.73172582 -90.3509124 87.24616689 -79.3125 91.75 C-76.57723999 81.70629823 -74.01662317 71.71285571 -72.05078125 61.48828125 C-70.67556138 54.52486635 -69.07347716 47.62559161 -67.3125 40.75 C-67.14024902 40.07291992 -66.96799805 39.39583984 -66.79052734 38.69824219 C-63.00507027 24.24849192 -56.31162617 7.57441801 -43.4375 -1 C-29.61513951 -9.00380493 -13.19248436 -9.73809319 0 0 Z M-137.3125 99.75 C-139.43384647 103.14281597 -139.73717242 105.75807923 -139.3125 109.75 C-136.77433921 113.78119654 -131.3540409 115.27042106 -126.91796875 116.3125 C-115.12156278 118.2933058 -101.71225196 115.96572148 -91.8125 108.9375 C-90.9875 108.215625 -90.1625 107.49375 -89.3125 106.75 C-89.99157499 103.68015212 -89.99157499 103.68015212 -92.2109375 102.50390625 C-94.89536453 101.21250208 -97.59119352 99.96194797 -100.3125 98.75 C-101.15296875 98.35039063 -101.9934375 97.95078125 -102.859375 97.5390625 C-113.53761543 92.97654159 -127.82822001 92.01603777 -137.3125 99.75 Z " fill="#05757D" transform="translate(227.3125,774.25)"/>
<path d="M0 0 C1.45599609 0.00966797 1.45599609 0.00966797 2.94140625 0.01953125 C5.4375 0.1875 5.4375 0.1875 7.4375 1.1875 C10.02554478 8.95163434 8.28903921 16.73164059 5.4375 24.1875 C5.1075 24.79335938 4.7775 25.39921875 4.4375 26.0234375 C3.02995467 29.06945357 2.48116375 32.15496888 1.8125 35.4375 C1.55210937 36.70078125 1.29171875 37.9640625 1.0234375 39.265625 C0.83007812 40.22984375 0.63671875 41.1940625 0.4375 42.1875 C10.17261341 41.13210453 16.93411717 38.08851814 23.75 31 C27.26355056 26.58875657 28.71013762 21.48474464 30.4375 16.1875 C31.25156989 13.84737626 32.0851568 11.51395652 32.9375 9.1875 C33.50984375 7.57875 33.50984375 7.57875 34.09375 5.9375 C35.53735719 2.9831411 36.59665541 1.78751592 39.4375 0.1875 C42.5625 -0.1875 42.5625 -0.1875 45.4375 0.1875 C48.19529627 4.32419441 47.35296702 7.53315492 46.4375 12.1875 C45.39320436 16.1425069 44.13295056 20.00436396 42.8125 23.875 C42.45494629 24.93356201 42.09739258 25.99212402 41.72900391 27.08276367 C38.92322932 35.19171282 35.62266931 42.68541328 31.4375 50.1875 C30.85355469 51.27160156 30.26960938 52.35570312 29.66796875 53.47265625 C28.27448522 56.05402738 26.86520426 58.6249539 25.4375 61.1875 C26.43652344 61.39246094 27.43554688 61.59742188 28.46484375 61.80859375 C29.75519531 62.07800781 31.04554688 62.34742188 32.375 62.625 C33.66277344 62.89183594 34.95054687 63.15867187 36.27734375 63.43359375 C39.4375 64.1875 39.4375 64.1875 40.4375 65.1875 C40.47842937 67.52047433 40.47991723 69.85455225 40.4375 72.1875 C39.78265625 72.1153125 39.1278125 72.043125 38.453125 71.96875 C35.4505361 71.66340198 32.44622386 71.42455097 29.4375 71.1875 C28.38433594 71.07277344 27.33117187 70.95804688 26.24609375 70.83984375 C20.51348085 70.27559376 20.51348085 70.27559376 15.62890625 72.76171875 C14.15522375 74.80410714 14.15522375 74.80410714 12.87109375 77.01953125 C10.85056907 80.0750931 8.2548437 81.80830286 5.26953125 83.86328125 C3.41736554 85.12821033 3.41736554 85.12821033 1.9375 86.6875 C-3.17771864 91.80271864 -8.65753804 93.56474161 -15.8125 93.8125 C-23.0546875 93.5703125 -23.0546875 93.5703125 -25.875 90.75 C-26.7103125 89.4815625 -26.7103125 89.4815625 -27.5625 88.1875 C-27.8925 87.8575 -28.2225 87.5275 -28.5625 87.1875 C-28.80078125 85.11328125 -28.80078125 85.11328125 -28.875 82.5 C-28.91238281 81.65050781 -28.94976562 80.80101562 -28.98828125 79.92578125 C-28.400362 76.14475931 -26.98247253 74.13597227 -24.5625 71.1875 C-15.11320847 64.76746684 -3.55985465 61.05170772 7.875 61.25 C12.47941697 59.87675283 13.04081918 58.19411614 15.4375 54.125 C16.46478567 52.15985755 17.47363257 50.18451284 18.4375 48.1875 C17.41011719 48.765 16.38273437 49.3425 15.32421875 49.9375 C-0.30317671 58.43077299 -0.30317671 58.43077299 -8.5625 56.1875 C-11.97561667 53.66179367 -13.22887768 52.18836696 -14.5625 48.1875 C-15.12300139 40.41054322 -13.37043925 34.01664328 -11.0625 26.625 C-10.72863281 25.52091797 -10.39476562 24.41683594 -10.05078125 23.27929688 C-9.23234575 20.57845974 -8.40275411 17.88161263 -7.5625 15.1875 C-11.09483755 16.36494585 -11.42558075 17.14355641 -13.25 20.25 C-13.68699219 20.98347656 -14.12398438 21.71695313 -14.57421875 22.47265625 C-14.90035156 23.03855469 -15.22648437 23.60445312 -15.5625 24.1875 C-21.3125 23.4375 -21.3125 23.4375 -23.5625 21.1875 C-22.72490288 13.83187439 -15.69080679 8.12472272 -10.39453125 3.6328125 C-6.66871533 0.69346945 -4.69966993 -0.06883671 0 0 Z M-8.125 72.4375 C-9.1140332 72.74494141 -9.1140332 72.74494141 -10.12304688 73.05859375 C-14.19341889 74.40856638 -16.80000543 75.89781181 -19.5625 79.1875 C-19.2325 80.1775 -18.9025 81.1675 -18.5625 82.1875 C-11.29516422 81.92323324 -7.35063908 79.39906024 -1.5625 75.1875 C-0.5725 74.61 0.4175 74.0325 1.4375 73.4375 C3.57773845 72.34156478 3.57773845 72.34156478 4.4375 70.1875 C-0.07597093 69.87442687 -3.89884261 71.01631433 -8.125 72.4375 Z " fill="#05757D" transform="translate(475.5625,840.8125)"/>
<path d="M0 0 C4.95 0 9.9 0 15 0 C13.87723234 6.73660599 13.87723234 6.73660599 12.50390625 10.16015625 C12.19751221 10.93907227 11.89111816 11.71798828 11.57543945 12.52050781 C11.24116943 13.35936523 10.90689941 14.19822266 10.5625 15.0625 C3.16622951 34.06441163 -3.52231547 53.35588997 -9 73 C-9.36738281 74.2478125 -9.73476563 75.495625 -10.11328125 76.78125 C-12.89244194 86.24050237 -15.36698958 95.09128144 -15 105 C-11.31804186 102.31316568 -9.30811049 99.88182219 -7 96 C-5.515 95.505 -5.515 95.505 -4 95 C-1.8125 96.4375 -1.8125 96.4375 0 98 C-1.2564211 106.85699322 -8.60039233 113.30441488 -15.4375 118.515625 C-18.7780219 120.45068342 -21.26264645 120.9634801 -25.0859375 120.60546875 C-28.20354673 119.61928624 -29.42317769 117.75943904 -31 115 C-34.68497722 107.63004556 -31.43452615 96.18398815 -29.875 88.5 C-29.6490918 87.3648999 -29.42318359 86.2297998 -29.19042969 85.06030273 C-27.27849819 75.76546477 -24.85468865 66.73778651 -21.89501953 57.72607422 C-20.89091408 54.6677432 -19.91320014 51.6014185 -18.93359375 48.53515625 C-13.58370397 31.97619816 -7.79252123 15.58504247 0 0 Z " fill="#05757D" transform="translate(451,777)"/>
<path d="M0 0 C3.85821126 2.72121384 5.50614973 5.25937739 6.5625 9.9375 C6.88398705 15.52642864 6.54761429 20.36778512 3 24.875 C-0.36775058 28.23473212 -4.04553099 30.20019618 -8.4375 31.9375 C-9.10394531 32.21335937 -9.77039063 32.48921875 -10.45703125 32.7734375 C-17.2289404 35.31133295 -24.2920106 36.07353613 -31.4375 36.9375 C-28.11319069 40.37261962 -26.25317767 42.08891497 -21.4375 42.3125 C-14.94167349 42.26002967 -9.29900067 39.25621141 -4.31640625 35.21875 C-3.69636719 34.7959375 -3.07632813 34.373125 -2.4375 33.9375 C0.3125 34.75 0.3125 34.75 2.5625 35.9375 C2.14536812 40.8040386 0.10784674 42.72980533 -3.4375 45.9375 C-3.89511719 46.43765625 -4.35273438 46.9378125 -4.82421875 47.453125 C-6.71882015 49.19634179 -8.51259628 50.05061038 -10.875 51.0625 C-11.63683594 51.39507813 -12.39867187 51.72765625 -13.18359375 52.0703125 C-17.80332669 53.84774874 -21.83879168 54.12793463 -26.8125 54.1875 C-28.09898437 54.21328125 -29.38546875 54.2390625 -30.7109375 54.265625 C-36.733381 53.73534696 -41.04870634 50.97980995 -45.4375 46.9375 C-50.87695979 39.83598305 -51.00711451 33.29089267 -50.234375 24.671875 C-48.86910834 16.18347793 -43.53939825 10.44490417 -37.0625 5.125 C-35.54149528 4.03312683 -34.0002921 2.96867564 -32.4375 1.9375 C-31.47650391 1.28394531 -31.47650391 1.28394531 -30.49609375 0.6171875 C-22.18061017 -4.03687963 -8.52004178 -4.22504535 0 0 Z M-29.8125 15.75 C-31.83569057 19.71856612 -32.69956677 23.56815851 -33.4375 27.9375 C-25.89503969 27.62257473 -18.68999802 26.63179422 -12.80078125 21.515625 C-10.16048677 18.58028329 -8.4375 15.91945043 -8.4375 11.9375 C-9.19449365 9.00913629 -9.19449365 9.00913629 -11.4375 6.9375 C-19.80749961 5.3769916 -24.59103864 9.5666905 -29.8125 15.75 Z " fill="#05747C" transform="translate(407.4375,843.0625)"/>
<path d="M0 0 C1.31291016 -0.05607422 1.31291016 -0.05607422 2.65234375 -0.11328125 C5.0625 0.3125 5.0625 0.3125 6.85546875 1.96484375 C11.18770512 10.39097338 7.36124734 22.69746983 5.0625 31.3125 C4.7015625 32.36824219 4.340625 33.42398438 3.96875 34.51171875 C2.9737623 37.58674538 2.90957934 40.10116618 3.0625 43.3125 C14.08151748 42.52542732 21.75066537 37.6114323 29.0625 29.3125 C31.40532677 25.44032798 33.32440115 21.4881765 35.0625 17.3125 C34.12148438 17.34214844 33.18046875 17.37179687 32.2109375 17.40234375 C29.0625 17.3125 29.0625 17.3125 26.6875 15.875 C24.27456965 12.06999445 24.31490559 8.693564 25.0625 4.3125 C26.375 1.75 26.375 1.75 29.0625 0.3125 C34.06950816 -0.40929936 38.46942052 -0.82541391 42.6875 2.1875 C46.43186497 7.97424586 45.6925183 15.05468401 44.70703125 21.71484375 C42.69258137 28.97497521 37.79570539 35.55033691 33.0625 41.3125 C32.0725 41.6425 31.0825 41.9725 30.0625 42.3125 C29.7325 43.3025 29.4025 44.2925 29.0625 45.3125 C19.93066504 53.60592828 7.11200566 57.25610559 -4.984375 56.80859375 C-7.85267169 56.32675026 -9.16886059 55.96751398 -11.25 54 C-14.6873825 48.52565009 -14.40531206 43.66343371 -13.16796875 37.4453125 C-12.82975298 36.10695382 -12.4818463 34.77101213 -12.125 33.4375 C-11.94485352 32.74076172 -11.76470703 32.04402344 -11.57910156 31.32617188 C-10.24320059 26.24265488 -8.70582455 21.26380875 -6.9375 16.3125 C-10.57309661 19.74611902 -13.29863346 23.1098607 -15.9375 27.3125 C-19.29345828 26.71322174 -21.31551226 25.46627564 -23.9375 23.3125 C-22.73850302 20.2293649 -21.46049523 17.24970508 -19.9375 14.3125 C-19.2775 14.3125 -18.6175 14.3125 -17.9375 14.3125 C-17.7003125 13.57515625 -17.463125 12.8378125 -17.21875 12.078125 C-15.73978642 8.885728 -14.10497531 7.33158614 -11.4375 5.0625 C-10.6434375 4.37671875 -9.849375 3.6909375 -9.03125 2.984375 C-5.88955639 0.47570921 -3.97178277 0.11081332 0 0 Z " fill="#05757D" transform="translate(308.9375,840.6875)"/>
<path d="M0 0 C5.54651954 3.39485248 9.20920883 7.33552207 11.625 13.375 C13.21303252 22.42678536 11.86256068 29.91334485 7.625 38.0625 C0.55047975 46.62639294 -7.45601789 52.61631907 -18.73535156 54.21972656 C-27.4193238 55.0414624 -35.66289588 54.54532242 -42.75 48.9375 C-49.39412644 42.0478001 -50.01581754 36.4792358 -49.890625 27.12109375 C-49.49400233 18.14199725 -45.31796945 12.13408982 -38.828125 6.171875 C-36.86678021 4.61848993 -34.87285529 3.260264 -32.75 1.9375 C-32.13125 1.52371094 -31.5125 1.10992188 -30.875 0.68359375 C-22.28814319 -4.129742 -8.86280156 -4.06155701 0 0 Z M-24.75 8.9375 C-30.48627824 14.5846133 -32.81207977 22.67146812 -33.125 30.5625 C-32.94254502 35.03661339 -32.02209999 39.05029279 -29.75 42.9375 C-26.87967542 45.48889963 -25.12166669 45.89019697 -21.3125 46.375 C-16.31981098 45.76186275 -13.43644936 44.07397224 -10.30078125 40.1015625 C-4.90108596 32.02522742 -4.52851392 22.1076233 -6.140625 12.64453125 C-7.00356168 10.05018958 -8.23168004 8.31045206 -10.44921875 6.71484375 C-16.05554624 3.99428797 -19.97447105 5.2072585 -24.75 8.9375 Z " fill="#05757D" transform="translate(271.75,843.0625)"/>
<path d="M0 0 C3.36092703 1.71217037 5.40208915 3.06413955 7.4375 6.25 C8.44982611 11.19914987 7.75711015 15.3825374 5.625 19.9375 C4 22 4 22 1 23 C-0.47586615 23.11687338 -1.95706612 23.17501742 -3.4375 23.1875 C-4.19933594 23.20167969 -4.96117187 23.21585938 -5.74609375 23.23046875 C-8.31886648 22.96739493 -9.84401658 22.42506367 -12 21 C-14.70510876 17.05583792 -15.32529684 12.91153623 -14.5625 8.25 C-13.60728757 4.87763418 -12.96529484 3.96690903 -10.3125 1.4375 C-6.4405584 -0.24277654 -4.17905528 -0.5970079 0 0 Z " fill="#26B2AB" transform="translate(844,218)"/>
<path d="M0 0 C-1.28519565 2.86697492 -2.57129254 4.97607712 -5 7 C-5.66 7 -6.32 7 -7 7 C-6.61402985 4.20171644 -6.19863427 3.1794116 -4.0625 1.25 C-2 0 -2 0 0 0 Z " fill="#009F7D" transform="translate(885,747)"/>
</svg>
